<?xml version="1.0" encoding="utf-8"?>
<!-- Generator: Adobe Illustrator 19.0.0, SVG Export Plug-In . SVG Version: 6.00 Build 0)  -->
<svg version="1.1" id="Layer_1" xmlns="http://www.w3.org/2000/svg" xmlns:xlink="http://www.w3.org/1999/xlink" x="0px" y="0px"
	 viewBox="-132 365.9 220 73.3" style="enable-background:new -132 365.9 220 73.3;" xml:space="preserve">
<style type="text/css">
	.st0{fill:#EDCA32;}
</style>
<g id="XMLID_43_">
	<g id="XMLID_327_">
		<path id="XMLID_328_" class="st0" d="M-70.2,400c-0.5-3.5-0.9-6.8-1.6-10c-1.2-5.5-4.2-9.9-8.9-13.1c-0.5-0.3-0.9-0.7-1.1-1.2
			c-1.3-3.7-4-5.7-7.7-4.8c-1.8,0.5-3.2-0.2-4.7-0.6c-0.5-0.1-0.9-0.4-1.4-0.5c-6.3-0.8-12.6,0.1-18.4,2.5c-2.2,0.9-4.7,1.3-6.7,3.2
			c-9.3,8.3-11.1,18.8-9.2,30.5c0.3,2.2,1.4,4.2,0.3,6.7c-1.3,2.9-1.8,6-1,9.5c1.2,5.2,6.5,10,12.6,8.7c0.9-0.2,2.3,0.1,3.1,0.7
			c8.3,6.5,21.2,6.3,29.3,0.1c0.7-0.5,2-0.8,2.9-0.7c4.2,0.6,8.4-1.4,10.6-5c2.5-4.2,2.4-8.4,0.8-12.8c-0.4-1.1-0.7-2.2-0.6-3.2
			C-71.5,406.5-70.8,403.2-70.2,400z M-90.5,380.4c0.5-1.7,0.8-3.4,1.4-5.1c0.2-0.7,1.2-1.7,1.3-1.6c1,0.5,3-0.3,2.8,1.8
			c-0.1,1.3-0.3,2.8-0.9,4c-2.2,3.7-4.7,7.3-7.1,10.9c-0.1,0.2-0.5,0.3-0.7,0.5c-0.1-0.1-0.3-0.2-0.4-0.3
			C-92.8,387.2-91.6,383.8-90.5,380.4z M-92.4,400.2c-0.7-0.7-1.7-1-2.8-1.7c5.3-1.5,9.2,1.2,9.4,6.1c0,0.5-0.7,1.5-1.1,1.5
			c-2.8,0.2-5.7,0.9-8.3-0.7c-0.7-0.4-1.4-1.7-1.3-2.2c0.4-1.2,1.5-1.4,2.8-0.8c0.6,0.3,1.6-0.1,2.3-0.2
			C-91.6,401.6-91.8,400.8-92.4,400.2z M-113.9,375.6c0.9-0.6,1.9-1.2,2.9-1.5c0.3-0.1,1,0.7,1.2,1.1c0.7,1.4,1.1,3,1.8,4.4
			c0.3,0.6,1.2,0.9,1.8,1.3c0.2-0.7,0.8-1.5,0.6-2.1c-0.5-1.8-1.2-3.4-2-5.9c3.8-0.3,6.9-0.6,10.1-0.5c1.5,0,3,0.7,4.4,1.2
			c1.1,0.4,1.5,1.1,1,2.5c-1.5,4.1-2.9,8.2-4.3,12.4c-0.8,2.4-0.5,2.9,1.5,3.4c0.1,0.2,0.1,0.4,0.2,0.6c-1.1,0.3-2.1,0.5-3.2,0.8
			c-4,0.9-6-1.4-7.9-4.6c-2.2-4-5.1-7.6-7.7-11.4C-113.6,376.7-114,375.7-113.9,375.6z M-97.8,398.4c0,2.4-0.4,2.8-3,2.8
			c-3,0-3.1-0.1-3.1-2.9c0-2.6,0-2.6,3.1-2.6C-98.1,395.6-97.8,395.9-97.8,398.4z M-117.3,376.6c4.3,5.6,8.5,11.2,11.6,17.4
			c-0.2,0.2-0.4,0.4-0.7,0.6c-1.4-1.2-3-2.2-4.1-3.6c-1.8-2.2-3.3-4.8-5.1-7.1c-0.5-0.6-1.5-0.9-2.2-1.3c0,0.9-0.4,2,0,2.6
			c2,3.2,4.3,6.1,6.6,9.4c-0.9,0-2,0.2-2.9-0.1c-2.4-0.6-4.7-1.5-7.1-2.1c-0.7-0.2-1.7,0.3-2.4,0.4c0.4,0.6,0.7,1.5,1.2,1.8
			c1.5,0.7,3,1.1,4.5,1.7c0.8,0.3,1.6,0.6,2.2,0.9c-2.2,5-7.7,5-11,8.3C-129.8,397.1-127.2,383.4-117.3,376.6z M-110.4,402.8
			c0.3,0.1,0.8-0.1,1.2-0.3c0.7-0.4,1.5-0.8,2.5-1.4c-1.1,4-4.2,4.9-9.8,3.3c0.2-3.7,5.2-7.3,10.1-6.8c-1.7,1.1-3,1.8-4.3,2.8
			C-111.8,401.2-111.6,402.4-110.4,402.8z M-87.7,429.4c-6.5,5.2-14.2,5.7-21.9,2.2c-6-2.8-9.8-7.5-11.2-14.1
			c-0.7-3.6-1.7-7.2-0.9-10.9c0.1-0.7,0.5-1.2,0.9-2.2c2,2.9,8,4.6,11,3.2c1.7-0.7,3.2-1.8,4.6-2.9c1.7-1.4,4.8-1,6.1,0.7
			c1.2,1.4,2.7,3.1,4.4,3.4c3,0.5,6.3,0.3,9.4,0c2-0.2,3.3-1.3,2.4-4c1.8,0.4,3.5,0.6,3.5,2.6C-79.4,415.7-80.7,423.9-87.7,429.4z
			 M-73.9,405.7c-2.1-1.1-4.1-2.6-6.3-3.2c-2.8-0.7-4.7-2.2-5.7-5c2.5-1.2,5.2-2.4,7.8-3.7c-1-2.2-2.1-2-3.4-1.3
			c-1.1,0.5-2,1-3.1,1.5c-0.1-0.1-0.2-0.3-0.3-0.5c1.4-1.9,2.8-3.8,4.2-5.7c0.7-0.9,1.4-1.8,0.1-2.7c-1.3-0.9-1.7,0.4-2.3,1.1
			c-2.5,2.7-5.1,5.4-7.7,8c-0.5,0.5-1.3,0.4-1.9,0.5c3.5-5.1,6.9-10.1,10.5-15.3C-74.4,383.1-72,396.3-73.9,405.7z M-94,424.2
			c-0.3,0.1-0.6,0.1-0.8,0.3c-2.8,3.1-8.5,2.8-11,0c-0.2-0.2-0.5-0.3-0.9-0.3c-0.7-0.1-1.3,0.5-1.3,1.3c0.1,0.3,0.1,0.7,0.3,0.9
			c1.8,2.3,4.4,2.9,7.1,3.4c0.1,0,0.3,0,0.4,0c2.7-0.5,5.3-1.2,7.1-3.4c0.2-0.3,0.3-0.7,0.3-1.1C-92.6,424.6-93.3,424.1-94,424.2z
			 M-91.4,412.3c-1,0-1.8,0.8-1.8,1.8c0,1,0.8,1.8,1.8,1.8s1.8-0.8,1.8-1.8C-89.6,413.1-90.4,412.3-91.4,412.3z M-109.9,412.2
			c-1,0-1.8,0.8-1.8,1.8c0,1,0.8,1.8,1.8,1.8s1.8-0.8,1.8-1.8S-108.9,412.2-109.9,412.2z M-30.4,404.5c0-1.1-0.2-2-0.5-2.9
			c-0.3-0.9-0.9-1.7-1.5-2.4c-0.7-0.7-1.4-1.3-2.3-1.7c-0.9-0.5-1.8-0.7-2.8-0.8v-0.1c1.7-0.5,3-1.4,4-2.6c1-1.2,1.5-2.7,1.5-4.6
			c0-1.5-0.3-2.6-0.9-3.6c-0.6-1-1.4-1.8-2.4-2.4c-1-0.6-2.1-1.1-3.4-1.3c-1.3-0.3-2.5-0.4-3.8-0.4h-9.6v31.5h9.4
			c1.5,0,2.9-0.1,4.4-0.4c1.5-0.3,2.8-0.7,4-1.4c1.2-0.7,2.1-1.6,2.8-2.7C-30.7,407.7-30.4,406.3-30.4,404.5z M-48.4,385.3h5.6
			c0.9,0,1.7,0.1,2.5,0.2c0.8,0.1,1.5,0.4,2.2,0.7c0.7,0.3,1.1,0.9,1.5,1.5s0.6,1.4,0.6,2.4c0,1.1-0.2,2-0.6,2.6
			c-0.4,0.7-1,1.2-1.7,1.6c-0.7,0.4-1.5,0.6-2.3,0.7c-0.9,0.1-1.7,0.2-2.6,0.2h-5.2L-48.4,385.3L-48.4,385.3z M-35.1,407
			c-0.5,0.7-1.1,1.3-1.8,1.7c-0.7,0.5-1.5,0.7-2.4,0.9c-0.9,0.2-1.8,0.3-2.8,0.3h-6.3v-11.2h6.4c0.9,0,1.9,0.1,2.8,0.3
			c0.9,0.2,1.7,0.5,2.4,0.9c0.7,0.5,1.3,1.1,1.7,1.8c0.5,0.7,0.7,1.7,0.7,2.8C-34.4,405.4-34.6,406.3-35.1,407z M-21.3,381.8v31.5
			h18.2v-3.5h-14.5v-28H-21.3z M24.5,385.3v-3.5H4.6v31.5h20.7v-3.5H8.4v-11.2h15.1v-3.5H8.4v-9.9h16.1V385.3z M50.4,398.5
			c-0.9-0.7-1.9-1.3-3-1.7s-2.3-0.9-3.6-1.3c-1.3-0.4-2.3-0.8-3.2-1.2c-0.9-0.4-1.5-0.8-2-1.3c-0.5-0.5-0.9-0.9-1.1-1.5
			c-0.2-0.5-0.3-1.2-0.3-1.9c0-0.9,0.2-1.7,0.6-2.4c0.4-0.7,0.9-1.3,1.5-1.7c0.7-0.4,1.4-0.7,2.2-0.9c0.8-0.2,1.7-0.3,2.4-0.3
			c1.1,0,2.2,0.2,3.2,0.7c1.1,0.5,1.8,1.2,2.5,2.2l3.1-2.6c-1.2-1.4-2.5-2.3-4-2.8c-1.5-0.5-3.1-0.8-4.9-0.8c-1.4,0-2.8,0.2-4,0.6
			c-1.3,0.4-2.4,0.9-3.4,1.7c-1,0.7-1.8,1.7-2.4,2.8c-0.6,1.1-0.9,2.4-0.9,4c0,1.3,0.2,2.4,0.6,3.4c0.4,0.9,0.9,1.7,1.7,2.4
			c0.7,0.7,1.5,1.3,2.5,1.7c0.9,0.5,2,0.9,3.1,1.3c1.4,0.5,2.6,0.9,3.6,1.3c1.1,0.3,1.9,0.7,2.6,1.2c0.7,0.5,1.2,1,1.5,1.6
			c0.3,0.6,0.5,1.4,0.5,2.4c0,0.9-0.2,1.7-0.6,2.4c-0.4,0.7-0.9,1.3-1.6,1.7c-0.7,0.5-1.4,0.8-2.2,1.1c-0.8,0.3-1.7,0.3-2.4,0.3
			c-1.4,0-2.6-0.3-3.9-0.9c-1.3-0.6-2.2-1.5-2.8-2.6l-3.2,2.6c0.5,0.8,1.2,1.5,1.9,2c0.7,0.5,1.5,1,2.4,1.3c0.9,0.3,1.7,0.6,2.6,0.7
			c0.9,0.1,1.8,0.3,2.8,0.3c1.5,0,2.8-0.2,4.2-0.5c1.3-0.4,2.5-0.9,3.6-1.7c1.1-0.7,1.8-1.7,2.5-2.8c0.6-1.2,0.9-2.5,0.9-4.1
			c0-1.5-0.3-2.8-0.8-3.8C52,400,51.3,399.2,50.4,398.5z M69.8,396.2l15.7-14.4H80l-14.4,13.6h-0.5v-13.6h-3.8v31.5h3.8v-16h0.5
			l15.1,16.1h5.5L69.8,396.2z M-45.1,433.6c-0.5,0.3-1,0.3-1.7,0.3c-0.5,0-1.1-0.1-1.5-0.3c-0.5-0.2-0.9-0.5-1.2-0.9
			c-0.3-0.4-0.6-0.8-0.8-1.3c-0.2-0.5-0.3-1.1-0.3-1.6c0-0.5,0.1-1.1,0.3-1.5c0.2-0.5,0.5-0.9,0.8-1.3c0.3-0.4,0.7-0.7,1.2-0.9
			c0.5-0.2,1-0.3,1.5-0.3c0.5,0,0.9,0.1,1.4,0.3c0.5,0.2,0.8,0.5,1.1,0.9l1-0.7c-0.4-0.5-0.9-0.9-1.6-1.2c-0.6-0.3-1.3-0.3-1.9-0.3
			c-0.7,0-1.4,0.1-2,0.4c-0.6,0.3-1.1,0.7-1.6,1.1c-0.5,0.5-0.8,1-1.1,1.7s-0.4,1.3-0.4,2s0.1,1.5,0.4,2c0.3,0.7,0.6,1.2,1.1,1.7
			c0.5,0.5,1,0.8,1.6,1.1s1.3,0.4,2,0.4c0.8,0,1.5-0.1,2.1-0.4c0.7-0.3,1.2-0.7,1.6-1.3l-0.9-0.7C-44.2,433-44.6,433.4-45.1,433.6z
			 M-38.7,425h-1.2v9.8h5.7v-1.1h-4.5V425z M-30.3,430.2h4.7v-1.1h-4.7v-3.1h5V425h-6.2v9.8h6.5v-1.1h-5.3L-30.3,430.2L-30.3,430.2z
			 M-18.7,425l-4.4,9.8h1.3l1-2.4h5l1,2.4h1.4l-4.2-9.8H-18.7z M-20.2,431.3l2-4.8l0,0l2,4.8H-20.2z M-3.4,433.1L-3.4,433.1
			l-5.7-8.2h-1.5v9.8h1.2v-8.2l0,0l5.7,8.2h1.5V425h-1.2V433.1z M1.6,434.8h1.2V425H1.6V434.8z M13.9,433.1L13.9,433.1L8.2,425H6.7
			v9.8h1.2v-8.2l0,0l5.7,8.2h1.5V425h-1.2V433.1z M23.9,430.4h2.2v3c-0.3,0.2-0.8,0.3-1.2,0.4c-0.5,0.1-0.9,0.1-1.3,0.1
			c-0.6,0-1.2-0.1-1.7-0.3c-0.5-0.2-0.9-0.5-1.3-0.9c-0.3-0.4-0.7-0.8-0.9-1.3c-0.2-0.5-0.3-1.1-0.3-1.7s0.1-1.1,0.3-1.7
			c0.2-0.5,0.5-0.9,0.9-1.3c0.3-0.3,0.8-0.7,1.3-0.9s1-0.3,1.6-0.3c0.5,0,1,0.1,1.5,0.3c0.5,0.2,0.9,0.5,1.2,0.9l0.9-0.9
			c-0.5-0.5-1-0.8-1.6-1c-0.6-0.2-1.3-0.3-1.8-0.3c-0.7,0-1.5,0.1-2.1,0.4c-0.7,0.3-1.2,0.6-1.7,1.1c-0.5,0.5-0.9,1-1.1,1.7
			c-0.3,0.7-0.4,1.3-0.4,2.1s0.1,1.5,0.4,2.1c0.3,0.7,0.6,1.2,1.1,1.7c0.5,0.5,1.1,0.8,1.7,1.1c0.7,0.3,1.3,0.4,2.1,0.4
			c0.7,0,1.3-0.1,1.9-0.2c0.7-0.1,1.3-0.4,1.8-0.7v-4.8h-3.4L23.9,430.4L23.9,430.4z M-51.7,369.7h79.1v-2.8h-79.1V369.7z"/>
	</g>
</g>
</svg>
