<?xml version="1.0" encoding="utf-8"?>
<!-- Generator: Adobe Illustrator 19.0.0, SVG Export Plug-In . SVG Version: 6.00 Build 0)  -->
<svg version="1.1" id="Layer_1" xmlns="http://www.w3.org/2000/svg" xmlns:xlink="http://www.w3.org/1999/xlink" x="0px" y="0px"
	 viewBox="0 0 255.1 170.1" enable-background="new 0 0 255.1 170.1" xml:space="preserve">
<g>
	<path fill="#FFFFFF" d="M248,106.1c-3.5,3-7.2,5.9-10.5,9.2c-1.7,1.7-3.3,2.6-5.6,2.6c-1,0-1.5-0.4-1.5-1.5
		c-0.1-3.8-0.1-7.5,1-11.2c0.6-2,0.8-4.1,1.3-6.6c-0.8,0.9-1.4,1.4-1.8,2.1c-1.8,2.8-3.7,5.6-5.4,8.5c-0.7,1.3-1.2,2.7-1.7,4.1
		c-0.4,1.3-2.7,1.7-4.1,0.8c-1.5-0.9-2.2-2.1-2.1-3.8c0-0.4,0-0.8,0-1.7c-1,0.9-1.6,1.5-2.3,2.1c-0.6,0.5-1.3,1.1-2,1.3
		c-1.8,0.4-2.4-0.2-2.1-2c0.1-0.5,0.2-1.1,0.1-1.6c-0.5-3.5,0.3-6.7,1.8-9.8c0.1-0.2,0.1-0.3,0.2-0.5c0,0,0-0.1-0.1-0.2
		c-2.1,1.3-3.9,3-5.4,5c-1,1.4-2.6,2.5-2.6,4.5c0,0.2-0.7,0.6-1.1,0.5c-2.2-0.3-3.7-1.5-4.4-4c-0.8,0.7-1.4,1.3-2,1.9
		c-0.9,1.1-1.9,2.2-2.7,3.4c-1.4,2.1-3.4,2.3-5,0.4c-1.9-2.2-2.4-5-3.3-7.6c-0.2-0.4-0.3-0.9-0.5-1.4c-2.3,3.2-5.8,16.7-5.2,20.7
		c-1.5-0.5-2.8-0.8-4.1-1.4c-0.9-0.4-1-1.1-0.6-2.2c1.2-3.3,2.2-6.6,3.3-9.9c1.1-3.1,2.2-6.2,3.3-9.3c0.3-0.7,0.5-1.5,0.5-2.4
		c-0.6,0.5-1.2,0.9-1.8,1.4c-2.9,2.6-6.5,4.1-10,6c-1.8,0.9-3.8,1.5-5,3.3c-0.4,0.6-2.7-0.2-3.3-1.1c-1.1-1.7-1.2-3.4-0.4-5.2
		c0.7-1.6,1.5-3.2,2.2-4.8c0.2-0.5,0.5-1,0.7-1.5c-1.9,0.7-3.7,1.5-4.7,3.3c-1.6,2.8-3.1,5.6-4.8,8.6c0.5,0,0.9,0,1.5,0
		c-0.3,0.8-0.4,1.4-0.7,2c-0.5,1-1.1,2.1-1.8,2.9c-0.6,0.6-1.7,1.3-2.3,1.1c-2.3-0.7-4.9-0.1-7-1.7c-0.6-0.4-1.3-0.7-2-1.2
		c-0.2,0.3-0.4,0.5-0.5,0.8c-1.6,5.2-3.2,10.4-4.6,15.7c-0.3,1.3,0,2.8,0.1,4.4c-1.2,0.7-3.5-0.5-3.7-2.1c0-0.2-0.1-0.4-0.2-0.5
		c-1.4-0.7-0.8-1.7-0.5-2.8c1.2-4.6,2.3-9.3,3.8-13.8c1.2-3.9,3-7.6,4.5-11.4c0.3-0.6,0.5-1.3,0.7-2c-0.1-0.1-0.2-0.1-0.3-0.2
		c-1,0.9-2,1.8-2.9,2.7c-2.3,2.1-4.5,4.3-6.8,6.4c-1.3,1.2-2.7,2.3-4.1,3.2c-2.1,1.3-4.4,1.2-6.6,0.1c-2-0.9-2.5-2.7-2.8-4.7
		c-0.1-0.4,0-0.8,0-1.6c-0.8,0.9-1.4,1.4-1.8,2.1c-2.7,3.5-5.4,7-8,10.6c-1,1.4-2.3,0.8-3.5,0.7c-1-0.1-1.6-0.9-1.8-2.1
		c-0.3-2.3,0.7-4.2,1.3-6.2c1-3.4,2.2-6.7,3.2-10.1c0.1-0.4,0.1-0.9,0.2-1.5c-1.9,0.7-3.2,1.9-4.5,3.1c-1.9,1.8-2.1,4.3-2.8,6.6
		c-0.3,1.1-0.6,2.2-0.8,3.3c-0.1,0.9,0,1.8,0,2.8c-1.2,0.9-4.2,0.2-4.8-1.3c-0.1-0.3,0-0.8,0.1-1.1c1.2-3.7,2.3-7.3,3.5-11
		c0.3-0.9,0.4-1.8,0.5-2.6c-2.1-0.8-4.5,0.2-5.2,2.2c-1.3,3.3-2.3,6.8-3.5,10.1c-0.3,0.7-0.5,1.5-0.9,2.2c-0.5,0.9-5,1-5.5,0.1
		c-0.2-0.5-0.2-1.3-0.1-1.8c0.9-2.5,2-4.9,2.9-7.4c1.2-3,2.4-6,3.6-9c0.2-0.5,0.3-1,0.5-1.9c-0.9,0.4-1.4,0.6-1.9,1
		c-1.9,1.3-3.8,2.5-5.6,3.8c-1,0.7-2,1.5-2.3,2.9c-0.4,1.7-3.3,3.2-5.1,3.1c-0.9,0-1.9,0.3-2.8,0.4c-2.3,0.4-3.4-0.4-3.9-2.7
		c-0.2-1-0.3-2-0.7-3.1c-0.7,1.8-1.5,3.6-2.2,5.4c-0.5,1.2-0.8,2.4-1.4,3.6c-1,2.1-4,2.6-5.7,1.1c-0.2-0.2-0.3-0.5-0.3-0.8
		c0.1-1.9,0.1-3.9,0.2-5.8c0-0.7,0.2-1.5,0.3-2.2c-0.1-0.1-0.2-0.2-0.3-0.2c-0.6,0.5-1.3,0.9-1.8,1.5c-1.6,2-3.3,4.1-4.7,6.3
		c-1,1.6-2.4,2-3.9,2.3s-2.4-0.4-2.9-1.9c-0.2-0.8-0.4-1.5-0.6-2.7c-0.7,0.9-1.3,1.6-1.8,2.3c-1.5,2.7-2.9,5.3-4.4,8
		c-0.6,1.1-1.6,1.4-3.3,1.1c-2-0.3-2.4-0.8-2.2-2.8c0.3-3.9,0.6-7.9,1-11.8c0.2-1.7,0.8-3.4,1.2-5.1c-0.1-0.1-0.3-0.2-0.4-0.3
		c-0.8,0.8-1.8,1.5-2.5,2.5c-1.8,2.6-3.4,5.2-5,7.8c-0.7,1.2-2.4,2.1-3.8,1.8h-0.1c-3.2-0.8-3.8-1.9-3.3-6.1c0.4-3,1-5.9,1.5-8.9
		c0.1-0.5,0.2-0.9,0.2-1.4c-0.1-0.1-0.3-0.2-0.4-0.2c-1.5,1.6-3.1,3.1-4.3,4.9c-2.1,3-4,6.2-5.9,9.3c-0.3,0.4-0.2,1.1-0.3,1.7
		c0,0.8-0.4,1.1-1.2,1.1c-0.1,0-0.2,0-0.3,0c-3.6,0.1-4.9-1.2-4.4-4.7c0.3-2.3,1-4.5,1.5-6.7c0.2-0.8,0.7-1.1,1.5-0.8
		c0.2,0.1,0.4,0.1,0.6,0.2c2.1,0.7,2.1,0.7,1.8,2.8c0,0.1,0,0.3,0,0.7c0.7-0.8,1.4-1.4,2-2.1c3.6-4.2,7.3-8.2,11.6-11.6
		c0.1-0.1,0.2-0.3,0.3-0.4c0.5-0.6,0.9-1.6,1.5-1.8c2.4-0.5,4.3-0.1,5.5,0.8c-1.3,3-2.7,5.9-3.8,8.9c-1.1,3-1.3,6.2-1.6,9.4
		c0.1,0,0.3,0.1,0.4,0.1c0.3-0.4,0.7-0.9,1-1.3c1.7-2.1,3.5-4.1,5.2-6.2c0.3-0.4,0.8-0.6,1.2-0.8c1.1-0.4,1.7-1.1,2.1-2.2
		c0.3-1,3.1-1.6,3.6-0.6c0.4,0.7,0.2,1.8,0.1,2.7c-0.9,4.7-1.9,9.4-2.9,14.1c-0.2,1.1-0.2,2.2-0.1,3.4c0.3-0.4,0.7-0.7,0.9-1.1
		c2.3-3,4.6-6,6.8-9.2c1.3-1.8,2.2-3.9,3.3-5.9c1.4-2.4,3.3-4.1,5.7-5.4c1.2-0.7,2.3-0.7,3.6-0.3c2.1,0.6,3.6,1.9,4.9,3.8
		c-2-0.5-3.8-0.2-5.2,1c-1.3,1.1-3.2,1.9-3.3,3.9c-2,0.7-1.4,2.7-1.9,4.2c0.3-0.3,0.6-0.6,0.9-0.9c1.9-2.1,4.3-3.6,6.6-5.3
		c2-1.5,3.4-0.5,5.1-0.2c-0.7,2.5-1.3,4.9-2,7.3c0.1,0,0.3,0.1,0.4,0.1c1.9-3.3,3.8-6.5,5.8-9.9c-0.1-0.1-0.3-0.4-0.6-0.9
		c2.1,0.5,2.2-1.1,2.8-2.2c0.9-1.5,1.9-2.9,2.9-4.3c1.2-1.5,3.1-1.6,4.7-1.8c1.9-0.3,4-0.2,5.9,0c1,0.1,2,0.8,2.9,1.2
		c-2.9,1.2-5.8,2.1-8.5,3.4c-0.8,0.4-1.5,1.4-1.9,2.3c-0.9,2.2-1.5,4.4-2.2,6.6c-0.1,0.4,0,0.9,0,1.8c1-0.7,1.8-1.1,2.5-1.6
		c4.1-2.7,8.2-5.4,12.4-8c1.2-0.8,4.7,0,5.5,1.1c0.2,0.2,0.1,0.7,0,1c-0.3,1.1-0.6,2.1-0.9,3.1c1.7-0.3,3.3-1,4.8-0.8
		c1.4,0.3,2.7,1.5,4,2.4c0,0.2-0.1,0.3-0.1,0.5c0.5-0.3,0.9-0.6,1.4-0.8c0.8-0.4,1.7-1,2.6-0.9c2.9,0.3,3.7,1,3,4.1
		c-0.7,2.9-1.7,5.7-2.4,8.6c-0.3,1.3-0.4,2.7-0.5,4.1c1.6-1.5,3.2-2.9,4.6-4.4c2.9-3.1,5.6-6.3,8.6-9.3c3.1-3.2,6.5-6,11.2-6.8
		c1.3-0.2,2.2-0.5,2.8,0.8c0.1,0.2,0.2,0.5,0.1,0.7c-1.2,3-3.1,5.5-5.8,7.2c-2.1,1.3-3.2,3.4-3.7,5.7c-0.1,0.6,0,1.3,0,2
		c2.2-0.6,4.1-1.1,5.5-2.5c3.6-3.5,7.2-7,10.7-10.5c0.4-0.4,0.7-0.8,0.9-1.3c0.9-1.5,0.9-1.5,2.6-0.9c0.1-0.2,0.3-0.3,0.3-0.5
		c0.2-0.7,0.5-1,1.2-0.8c0.7,0.3,1.1,0.7,0.8,1.5c-0.5,1.3-1,2.7-1.4,4c-0.1,0.2-0.1,0.5-0.2,1.1c1.8-1.4,3.3-2.6,5-3.7
		c2.1-1.3,4.3-2.5,6.5-3.5c1.8-0.8,2.7-0.3,3.7,1.4c0.6,1,1.2,1.5,2.4,0.7c1.8-1.1,3.7-2.2,5.7-3.1c1.5-0.6,3.1-0.9,4.7-1.3
		c0.2-0.1,0.6,0.1,0.7,0.3c0.9,0.9,1.8,1.8,3,3c-7.2,0.9-11,5-12.5,11.8c1.6-0.7,2.8-1.2,4-1.7c4-1.6,7.8-3.5,11.2-6.2
		c2.1-1.7,4-3.6,4.8-6.3c0.1-0.4-0.4-1.1-0.6-1.7c0.3,0.1,0.7,0.3,1.2,0.5c0.2-0.4,0.4-0.8,0.6-1.2c0.2-0.7,0.5-1.4,1.3-0.8
		c0.7,0.5,1.9,0.8,1.4,2.2c-0.1,0.4-0.4,0.7-0.6,1c-0.4,0.8-1.2,1.5,0.1,2.1c-0.7,1.1-1.3,2-1.9,2.9c0.1,0.1,0.2,0.2,0.3,0.3
		c1.3-1,2.6-2,4-2.9c2-1.5,4-2.9,6.1-4.3c1.2-0.9,1.8-0.7,2.7,0.8c-0.2,0.1-0.4,0.2-0.5,0.2c-1.5-1-2.6,0.2-3.7,0.9
		c-2.3,1.6-4.4,3.4-6.7,5.1c-1.4,1,0,2,0,2.9c0.1,1.5,0.6,2.9,0.8,4.4c0.3,1.9,1.1,3.6,2.2,5.3c1.6-1.4,2.9-2.7,4.4-3.8
		c1.8-1.3,2.7-2.8,2.7-5.2c0-3,1.6-5.6,4.2-7.3c1.4-0.9,2.8-1.8,4.4-2.5c3-1.3,6.5,0.4,7.6,3.7c-0.2,0.1-0.4,0.2-0.5,0.2
		c-3.5,0.3-6.2,2.4-8.8,4.5c-2.3,1.8-2.3,4.7-2.8,7.7c0.6-0.4,0.9-0.6,1.1-0.8c2.5-3.2,5.7-5.6,8.9-8c0.4-0.3,0.8-0.7,1.2-1
		c1.2-1.1,1.5-1.1,2.8,0c-0.8,1.3-1.7,2.6-2.5,4c-1.5,2.6-2.2,5.4-2,8.4c0,0.5,0.3,1,0.7,1.3c0.1,0.1,0.9-0.2,1.2-0.5
		c1.3-1.3,2.5-2.7,3.9-3.9c0.5-0.4,1.5-0.2,2.3-0.1c0.3,0.1,0.7,0.6,0.9,1c0.2,0.6,0.3,1.3,0.4,2.2c4.3-5,8.3-9.8,12.4-14.5
		c0-0.1-0.1-0.2-0.1-0.2c-1.3,0.4-2.6,0.8-3.8,1.3c-1.7,0.8-3.4,0.9-5.1,0.1c-1-0.5-1.5-1.1-1-2.2c1.7-3.4,3.2-7.1,5.4-10.2
		c1.7-2.5,5-2.8,8.1-0.3c0.7,0.6,1.3,1.2,2,1.8c1,0.9,1.4,0.8,2.2-0.3c0.4-0.6,0.9-1.1,1.2-1.8c0.7-1.2,1.6-1.7,2.9-1.2
		c0.3,0.1,0.6,0.1,0.9,0.1c0,1,0,2,0,2.9c-0.4,0.7-0.7,1.4-1.1,2.1c-1,1.9-1.9,3.8-2.9,5.7c-0.8,1.5-1.7,2.9-2.5,4.4
		c-0.4,0.7-0.5,1.4-0.8,2.1c-1.5,3.4-3.3,6.8-3.8,10.6c-0.2,1.8-0.3,3.5-0.4,5.6c0.7-0.4,0.9-0.5,1.2-0.7c1.8-1.4,3.5-2.9,5.3-4.2
		c1.7-1.2,3.4-2.4,5.1-3.5C248,105.3,248,105.7,248,106.1z M144.4,108.5c0.7,0.4,1.4,0.7,2.1,1.2c1,0.7,1.9,0.5,2.7-0.1
		c0.5-0.4,0.8-1,1-1.6c0.9-2.1,1.9-4.3,2.8-6.6c-3,1.8-6.4,5.2-7.3,7.3C145.2,108.5,144.8,108.5,144.4,108.5
		c0.3-0.6,0.4-1.3,0.9-1.8c1.9-1.8,3.8-3.6,6-5.1c1.9-1.3,3.3-2.9,4.2-4.9c0.7-1.5,1.6-2.9,2.5-4.4c-0.3,0.1-0.5,0.1-0.6,0.1
		c-4,1.9-7.4,4.7-10.5,7.8c-0.5,0.5-0.9,1.1-1.1,1.8c-0.6,1.7-1.1,3.4-1.6,5.2C144,107.6,144.3,108.1,144.4,108.5z M233.1,90.9
		c3,0,3.9-0.6,5.6-2.7c0.8-1.1,1.6-2,1.1-3.5c-0.3-1-1.3-2.3-2.3-2.3c-0.3,0-0.8,0.3-1,0.5c-0.7,1.6-1.2,3.3-1.9,4.9
		C234.3,88.8,233.7,89.8,233.1,90.9z M133.8,95.4c-0.1-0.1-0.2-0.2-0.3-0.3c-1.2,1.3-2.4,2.7-3.6,4c0.1,0.1,0.2,0.2,0.4,0.3
		C131.5,98.1,133.2,97.2,133.8,95.4z"/>
	<path fill="#FFFFFF" d="M121.3,58.1c-0.3,0.4-0.6,0.9-1,1.1c-2.3,1.6-3.1,4-3.3,6.7V66c0.3,0.8,0.4,1.9,1,2.4
		c0.3,0.3,1.6-0.2,2.2-0.6c2-1.3,3.9-2.8,5.7-4.3c1-0.8,1.7-1.8,2.5-2.8c0.6-0.8,1-1.7,2.2-1.6c1.1,0.1,1.2,0.5,0.8,1.5
		c-0.7,1.5-1.4,3-2.1,4.5c0.1,0.1,0.2,0.2,0.3,0.3c1.5-1.2,2.9-2.3,4.4-3.5c0.5-0.4,0.9-0.9,1.5-1.1c2.6-1.4,4.1-3.8,5.5-6.2
		c1-1.7,2.3-1.9,3.7-0.8c0.3,0.2,0.4,0.9,0.3,1.2c-0.8,1.9-1.7,3.9-2.7,5.7c-1.6,3.2-2.9,6.5-3.5,10.1c-0.1,0.6,0.1,1.3,0.2,1.9
		c0.1,0,0.2,0,0.3,0c0.7-0.9,1.4-1.9,2.3-2.8c1.3-1.3,2.7-2.5,4-3.7c0.3-0.3,0.6-0.6,0.7-1c0.1-1.9,1-3.5,1.9-5
		c0.9-1.6,2.1-3.2,3.4-4.5c1-1,2.4-1.4,3.9-0.8c1.5,0.6,3,1.1,4.4,1.7c0.4,0.2,0.6,0.7,0.9,1c-0.1,0.1-0.2,0.2-0.2,0.3
		c-0.4,0-0.7-0.1-1.1-0.1c-2.5-0.6-5,0.4-6.1,2.9c-0.7,1.5-1.2,3.2-1.8,4.8c-0.1,0.2,0,0.4-0.1,1.1c1.2-0.9,2.1-1.4,2.9-2.2
		c1.3-1.4,3.2-2.4,4.1-4.3c0.1-0.3,1.1-0.6,1.6-0.5c0.8,0.2,1.6,0.7,2.2,1c-1,4.4-3.2,8.5-0.6,13.1c1.5-1.6,2.7-3,4-4.3
		c1.2-1.2,2.4-2.4,3.6-3.6c0.3-0.3,0.8-0.6,1.2-0.8c1.5-0.5,1.8-0.4,2.2,1.2c0.1,0.4,0.3,0.8,0.5,1.6c2.9-3.5,4.9-7.2,7.2-10.8
		c-1.1,0.6-2.3,1.1-3.4,1.7c-1.6,0.8-3.2,1.6-4.9,2.3c-0.6,0.3-1.8-0.5-1.9-1.3c-0.4-3.4,0.4-6.4,3.1-8.6c1.6-1.3,3.7-1,5.6-1
		c1.7,0,3.2,0.3,4.6,1.4c1,0.8,2,0.3,2.9-1.3c0.6-1.1,1.5-1.2,2.1-0.3c0.2,0.3,0.2,0.9,0,1.3c-0.8,2-1.6,3.9-2.6,5.8
		c-2.5,5-2.8,10.4-3,15.8c0,0.9,0.4,1.7,0.7,2.9c1.5-1.4,2.6-2.6,3.9-3.6c1.9-1.5,3.9-2.8,5.8-4.1c0.3-0.2,0.9,0,1.3,0.2
		c-2,0.7-3.2,2.1-4.4,3.5c-1.9,2.1-3.8,4.2-5.7,6.3c-0.8,0.8-1.6,1.5-2.9,1.2c-1.2-0.3-1.4-1.1-1.7-2.1c-0.3-1.3-1-2.4-0.9-3.8
		c0.2-5,0.4-10,2.4-14.8c0.2-0.4,0.3-0.8,0.2-1.3c-0.5,0.7-1,1.3-1.4,2.1c-1.9,3.2-3.8,6.5-5.8,9.7c-0.4,0.6-1.3,1.1-1.9,1.1
		c-0.5,0-1.1-0.7-1.5-1.3c-0.3-0.5-0.5-1.1-0.8-2c-0.9,0.7-1.8,1.3-2.6,2s-1.6,1.6-2.3,2.4c-0.3,0.3-0.4,0.9-0.5,1.3
		c-0.2,0.6-0.3,1.2-0.5,1.7c-0.5,0.9-1.1,1.8-1.7,2.7c-0.7,1-2.3,1.6-3.7,1.3c-1.3-0.3-1.6-1.2-1.6-2.3c-0.1-3.3-0.2-6.6-0.4-9.9
		c0-0.5-0.1-0.9-0.1-1.7c-2,1.7-3.8,3.2-5,5.4c-0.8,1.5-2.8,2.2-4.4,1.4c-0.4-0.2-0.7-0.6-0.9-1c-0.3-0.8-0.4-1.6-0.7-2.8
		c-1,1.1-2,2-2.7,3c-1.2,1.8-2.2,3.7-3.4,5.5c-0.8,1.2-2.1,0.7-3.2,0.6c-1,0-0.6-0.9-0.8-1.5c-1.1-3.6-0.2-7.2,0.6-10.7
		c0.3-1.2,0.7-2.3,0.9-3.7c-0.9,0.7-1.8,1.5-2.7,2.2c-2,1.8-4.2,3.5-5.9,5.6c-0.7,0.9-0.6,2.6-0.7,3.9c0,0.9,0.3,1.9,0.6,3
		c0.1-0.1,0.1,0,0,0c-0.9,0.5-1.8,1.8-2.8,0.9c-0.6-0.5-0.8-1.8-0.7-2.7c0.2-2.5,0.6-4.9,0.9-7.4c0-0.2,0.1-0.4,0.1-0.6
		c-0.1-0.1-0.2-0.1-0.4-0.2c-0.3,0.5-0.5,1.1-0.8,1.6c-1.5,0.7-3.4,1.1-4.6,2.3c-1.2,1.2-2.4,1.5-3.7,1.3c-3.6-0.4-5-2.3-4.7-5.7
		c0.1-0.7,0.3-1.4,0.3-2.2c-0.4,0.4-0.9,0.9-1.3,1.3c-2.3,2.8-4.2,5.9-5.4,9.4c-0.1,0.2-0.2,0.4-0.2,0.6c-0.4,1.7-1.9,2.4-3.5,1.5
		c-0.3-0.2-0.7-0.6-0.8-1c-0.3-2.5-0.7-5.1-0.8-7.7c-0.1-2,0.3-4,0.4-6.1c0-0.4,0.1-0.8,0.1-1.3c-0.1,0-0.2-0.1-0.3-0.1
		c-0.8,1.2-1.7,2.3-2.5,3.5c-2.5,3.7-4.1,7.8-5.7,12c-0.4,1-0.8,1.6-2,1.4c-1.1-0.2-2.2-0.5-2.3-1.8c-0.1-1.6,0.1-3.2,0.2-4.7
		c0-0.5,0.2-1.1,0-1.8c-1.1,0.8-2.4,1.5-3.3,2.5C83,72.5,81,71.9,79,71c-2-0.8-3.1-2.5-3.3-4.7c-0.1-0.6-0.1-1.1-0.1-1.9
		c-1.7,0.5-3.3,0.8-3.9,2.7c-0.9,2.9-2.4,5.4-4.3,7.7c-4.4,5.5-9.9,9.3-16.6,11.4c-3.3,1.1-6.7,1.3-10.2,1c-2.1-0.2-3.6-1-4.8-2.5
		c-1-1.1-1-1.7,0.2-2.7c1.6-1.3,3.2-2.5,5-3.4c6-3,12.1-5.8,18.2-8.7c1.7-0.8,3.5-1.4,5.3-2.2c0,0.2,0,0.3-0.1,0.3
		c-4.9,2.9-9.8,5.7-14.7,8.5c-2,1.1-4.1,2-6,3.3c-1.7,1.1-3.2,2.5-3.9,4.5c-0.4,1.1-0.1,1.7,1.1,1.9c2.9,0.5,5.8,0.2,8.5-0.7
		c7.8-2.5,13.8-7.3,17.7-14.6c1.6-3,2.4-6.3,2.4-9.9c-2.6,1.1-5,2.2-6.9,4.1c-0.9,0.9-1.6,0.7-2.4,0c-0.6-0.5-1.2-1.1-1.6-1.8
		c-0.2-0.3,0-1.1,0.3-1.4c2.5-3,4.5-6.3,5.4-10.1c0.2-0.9,0.2-1.8,0.2-2.8c0-0.4-0.3-0.8-0.5-1.2c-0.4,0.2-0.9,0.2-1.1,0.5
		c-2.1,2.1-4.1,4.3-6.1,6.4c-0.2,0.2-0.3,0.6-0.4,0.8c-0.2-0.1-0.4-0.3-0.7-0.4c0.2-0.5,0.3-1,0.6-1.4c2.2-2.2,4.4-4.3,6.6-6.4
		c0.5-0.5,1.3-1.4,1.7-1.2c0.9,0.3,1.8,1,2.5,1.7c1.7,1.7,1.5,3.8,0.9,5.7c-0.8,2.3-2.2,4.4-3.3,6.6c-0.1,0.3-0.3,0.5-0.6,1.1
		c0.5-0.2,0.8-0.2,1.1-0.3c1.3-0.6,2.7-1.1,4-1.8c0.9-0.4,1.5-0.2,2.1,0.5c1.3,1.3,1.7,2.8,1.1,4.3c1.4,0.4,3.2-0.5,3.6-1.8
		c1.2-3.5,3.6-6,6.8-7.6c1.7-0.8,3.3-0.8,4.6,0.7c0.4,0.4,0.4,1.4,0.2,2c-0.5,1.7-2,2.5-3.3,3.5c-0.7,0.6-1.5,1.1-2.3,1.6
		c-1.9,1.3-2.6,4.7-1.4,7.1c0.1,0.2,1.1,0.3,1.6,0.1c1.5-0.7,2.9-1.5,4.3-2.4c0.9-0.5,1.7-1.2,2.6-1.7c0.5-0.3,1.3-0.4,1.7-0.2
		c0.3,0.1,0.4,1,0.4,1.5c0,1.1-0.1,2.1,0,3.3c0.8-1.2,1.5-2.4,2.3-3.6c3.4-5.5,7.5-10.5,12-15.2c0.6-0.6,1-0.7,1.7-0.3
		c0.7,0.3,1.4,0.6,2.1,0.9c0.1,0,0.1,0.1,0.1,0.2c-4.1,3.2-4.7,8-5.5,12.6c-0.5,2.5-0.4,5.1,0.4,7.9c0.4-0.5,0.7-0.7,0.9-1.1
		c2.1-4.1,4.7-7.8,8.1-10.9c2-1.8,3.8-3.9,5.9-5.8c1.1-1,2.5-1.9,3.9-2.6c0.6-0.3,1.5,0,2.2,0.4c0.2,0.1,0.2,1.3-0.1,1.6
		C124,55.7,122.6,56.9,121.3,58.1c1.2-1.3,2.5-2.7,3.8-4.1c-0.1-0.1-0.3-0.2-0.4-0.3c-1.9,1.4-3.7,2.9-4.9,5.2
		C120.4,58.6,120.8,58.4,121.3,58.1z M174.9,57.6c0.1,0.1,0.3,0.2,0.4,0.3c0.5-0.1,0.9-0.2,1.4-0.4c1.4-0.6,2.7-1.2,4.1-1.8
		c1.3-0.5,1.7-1.6,1-2.8c-0.9-1.6-2.4-2-3.9-2C176.9,53.2,175.9,55.4,174.9,57.6z M81.5,61.6c3.9-1.3,6-3.9,5.1-5.7
		C83.9,56.8,83.2,59.5,81.5,61.6z"/>
	<path fill="#FFFFFF" d="M125,50.6c1.8-2.4,3.5-4.6,5.2-6.8C130,45.4,126.1,50.5,125,50.6z"/>
	<path fill="#FFFFFF" d="M174.3,85.4c-0.7-1.5-0.6-1.5,0.8-1.8c0.8-0.2,1.6-0.5,2.6-0.8C176.5,83.8,175.4,84.6,174.3,85.4z"/>
	<path fill="#FFFFFF" d="M124.9,46.5c-0.7,1.3-1.4,2.6-2.1,3.9c-0.1-0.1-0.3-0.2-0.4-0.2c0.7-1.3,1.4-2.6,2.1-3.9
		C124.6,46.3,124.8,46.4,124.9,46.5z"/>
</g>
</svg>
