<?xml version="1.0" encoding="utf-8"?>
<!-- Generator: Adobe Illustrator 19.0.0, SVG Export Plug-In . SVG Version: 6.00 Build 0)  -->
<svg version="1.1" id="Layer_1" xmlns="http://www.w3.org/2000/svg" xmlns:xlink="http://www.w3.org/1999/xlink" x="0px" y="0px"
	 viewBox="0 0 255.1 170.1" enable-background="new 0 0 255.1 170.1" xml:space="preserve">
<g>
	<polygon fill="#FFFFFF" points="40.2,106.7 62.1,106.7 62.1,95.2 52.5,95.2 52.5,89.2 61.1,89.2 61.1,78.8 52.5,78.8 52.5,73.2 
		62.1,73.2 62.1,62.5 40.2,62.5 	"/>
	<path fill="#FFFFFF" d="M64.9,84.2c0,7.9,1.9,13.8,6,18c3.4,3.5,7.6,5.3,12,5.3c2.4,0,4.6-0.6,6.9-1.6V94.8c-1.5,1-3.2,1.4-4.8,1.4
		c-4.5,0-7.2-4.2-7.2-11.9c0-8,2.6-12.2,7.5-12.2c1.4,0,3,0.4,4.5,1.3V62.9c-2.3-0.8-4.7-1.2-7.3-1.2C72.5,61.7,64.9,70.5,64.9,84.2
		z"/>
	<path fill="#FFFFFF" d="M108.6,61.6c-10.3,0-16.5,8.2-16.5,23c0,14.8,6.2,22.9,16.5,22.9c10.3,0,16.5-8.1,16.5-22.9
		C125.1,69.8,118.9,61.6,108.6,61.6z M108.6,96.2c-3.4,0-4.1-3.7-4.1-12c0-8.2,0.7-12,4.1-12c3.3,0,4,3.8,4,12
		C112.6,92.5,111.9,96.2,108.6,96.2z"/>
	<polygon fill="#FFFFFF" points="140.9,91.3 136.4,62.5 124,62.5 134.1,106.7 147.8,106.7 157.9,62.5 145.6,62.5 	"/>
	<polygon fill="#FFFFFF" points="159.9,106.7 181.8,106.7 181.8,95.2 172.3,95.2 172.3,89.2 180.9,89.2 180.9,78.8 172.3,78.8 
		172.3,73.2 181.8,73.2 181.8,62.5 159.9,62.5 	"/>
	<path fill="#FFFFFF" d="M215.7,76.1c0-8.3-5.7-13.6-15.5-13.6h-14.2v44.2h12.3V90.2l0.3-0.5c0.2-0.5,0.6-1.7,0.7-3.4
		c-2.6-0.5-3.4-3.4-3.4-5.7c0-2.5,3.7-6.4,3.5-11.9c0,0,5.5,7.7,5.5,11s-1.3,6.7-4.9,6.7c0,0,0,0-0.1,0c-0.1,2.4-1,4-1,4.1l-0.1,0.2
		l5,16.1H217L209.1,89C209.1,89,215.7,86.5,215.7,76.1z"/>
</g>
</svg>
