<?xml version="1.0" encoding="utf-8"?>
<!-- Generator: Adobe Illustrator 19.0.0, SVG Export Plug-In . SVG Version: 6.00 Build 0)  -->
<svg version="1.1" id="Layer_1" xmlns="http://www.w3.org/2000/svg" xmlns:xlink="http://www.w3.org/1999/xlink" x="0px" y="0px"
	 viewBox="0 0 255.1 170.1" enable-background="new 0 0 255.1 170.1" xml:space="preserve">
<g>
	<path fill="#FFFFFF" d="M114.4,70.5c-0.2,0.1-0.4,0.2-0.6,0.3c-0.2,0.1-0.5,0.2-0.7,0.3c-0.3,0.2-0.7,0.3-1,0.4
		c-0.6,0.2-1.1,0.5-1.6,0.9c-0.4,0.4-0.7,0.8-0.7,1.4c0,0.4,0,0.7,0.1,1c0.2,0.5,0.5,0.8,1,0.9c0.2,0,0.4,0,0.5,0
		c0.5,0.1,1,0,1.4-0.2c0.5-0.2,0.9-0.4,1.2-0.8c0,0,0.1-0.1,0.1-0.1c0.2-0.2,0.5-0.5,0.5-0.8c0-0.2,0.1-0.4,0.2-0.6
		c0.1-0.1,0.1-0.2,0.1-0.3c-0.1-0.7-0.2-1.5-0.2-2.2c0-0.1-0.1-0.2-0.1-0.3C114.5,70.4,114.5,70.4,114.4,70.5z"/>
	<path fill="#FFFFFF" d="M122.4,67.2c0.4-0.6,0.8-1.2,1.2-1.8c0.4-0.6,0.8-1.2,1.1-1.8c0.2-0.3,0.4-0.6,0.4-1
		c0.2-0.2,0.2-0.4,0.3-0.6c0.2-0.7,0.4-1.3,0.4-2c0-0.1,0-0.3,0-0.4c0-0.5-0.2-1-0.5-1.4c-0.3-0.3-0.6-0.4-0.9-0.3
		c-0.5,0.1-0.9,0.3-1.1,0.8c-0.1,0.2-0.2,0.4-0.2,0.5c-0.3,0.8-0.4,1.7-0.4,2.6c0,0.2,0,0.5,0,0.7c0,0.2-0.1,0.4-0.1,0.6
		c0,0.6-0.1,1.1-0.1,1.7c0,0.3,0,0.7,0,1c0,0.3-0.1,0.6-0.1,0.9c0,0.3,0,0.5-0.1,0.8c0,0,0,0,0.1,0
		C122.2,67.4,122.3,67.3,122.4,67.2z"/>
	<path fill="#FFFFFF" d="M122.4,69.6c0.1,0.3,0.2,0.4,0.5,0.5c0.2,0,0.2,0.1,0.2,0.3c0,0.1,0,0.2,0,0.3c0,0.4,0,0.8,0.2,1.2
		c0.2,0.7,0.6,1.3,1.1,1.7c0.1,0.1,0.3,0.2,0.5,0.2c0.2,0,0.4,0.1,0.7,0.1c0,0,0.1-0.1,0.1-0.2c0.2-0.4,0.3-0.8,0.4-1.2
		c0.2-0.7,0.2-1.5,0.1-2.2c0-0.1,0-0.2-0.1-0.3c-0.1-0.5-0.3-1-0.6-1.4c-0.1-0.1-0.2-0.3-0.4-0.4c-0.4-0.2-0.8-0.3-1.2-0.5
		c-0.3-0.1-0.5-0.1-0.7,0c-0.2,0.1-0.3,0.1-0.4,0.2c-0.3,0.2-0.5,0.4-0.5,0.7C122.3,69,122.3,69.3,122.4,69.6z"/>
	<path fill="#FFFFFF" d="M211.8,73.4c-0.2-1.6-0.8-3.2-1.1-4.8c-1.2,0.2-2.3,0.1-3.3,0.7c-0.5,0.3-0.7,0.6-0.6,1.2
		c0.2,1.1,0.3,2.2,0.5,3.3c0.1,0.5,0.3,1,0.4,1.5c0.1,0.7,0.1,1.5,0.2,2.2c0.3,1.4,0.1,2.8-0.2,4.2c-0.4,1.8-0.8,3.7-1.2,5.5
		c-0.5,1.8-1,3.5-1.5,5.2c-0.2,0.6-0.4,1.2-0.7,1.8c-0.4,0.9-0.9,1.8-1.3,2.8c-0.5,1.1-1.3,2-2.4,2.5c-0.9,0.4-1.8,0.9-2.8,1.3
		c-0.5,0.2-1,0.4-1.4,0.5c-1.3,0.3-2.6,0.4-3.9,0.3c-1.2-0.1-2.4-0.5-3.4-1.2c-0.5-0.4-1-0.8-1.4-1.3c-1.5-1.7-3-3.4-4-5.5
		c-0.1-0.2-0.2-0.3-0.3-0.5c-0.3-0.5-0.6-0.9-0.9-1.5c-0.7-1.5-1.3-3-1.9-4.5c-0.3-0.6-0.6-1.3-0.8-1.9c-0.4-1.1-0.6-2.3-1-3.4
		c-0.4-1.2-1-2.4-1.5-3.6c0,0,0-0.1,0-0.1c-0.5-1-0.8-2.1-1.1-3.3c-0.3-1.4-0.7-2.7-1.3-4c-0.4-1-0.8-2-1.3-2.9
		c-0.4-0.9-0.9-1.8-1.3-2.7c-0.1-0.3-0.3-0.6-0.4-0.8c-0.4-1.1-0.7-2.1-1.4-3.1c-0.6-0.8-1-1.6-1.5-2.5c-0.4-0.7-0.8-1.5-1.2-2.3
		c-0.5-0.9-1-1.7-1.5-2.5c-1-1.6-2.1-3.2-3.4-4.6c-0.5-0.5-1.1-1.1-1.7-1.5c-0.6-0.4-1-0.9-1.4-1.5c-0.2-0.4-0.4-0.9-0.7-1.2
		c-0.9-0.9-1.7-1.9-2.8-2.6c-0.4-0.3-0.9-0.5-1.2-0.8c-1-0.8-2-1.6-3-2.4c-0.1-0.1-0.3-0.2-0.5-0.3c-1.5-0.8-3-1.3-4.7-1.6
		c-0.8-0.2-1.6,0.1-2.3-0.4c-0.1-0.1-0.3,0-0.4,0c-0.3,0-0.6,0.1-0.9,0.1c-0.7,0-1.4,0-2,0.1c-1.1,0.2-2.2,0.6-3.3,0.9
		c-1.1,0.3-2.2,0.5-3.3,0.8c-0.4,0.1-0.8,0.2-1.2,0.3c-0.7,0.2-1.5,0.4-2.2,0.6c-1,0.2-1.9,0.3-2.9,0.5c-1.3,0.2-2.6,0.4-3.9,0.6
		c-0.1,0-0.3,0-0.4,0.1c-1.1,0.3-2.1,0.5-3.2,0.8c-0.6,0.2-1.3,0.4-1.9,0.6c-0.9,0.2-1.8,0.3-2.7,0.6c-0.8,0.3-1.7,0.4-2.5,0.9
		c-0.8,0.4-1.7,0.8-2.6,1c-1.1,0.2-2.3,0.7-3.4,1c-0.5,0.2-1,0.4-1.5,0.5c-1.7,0.5-3.4,0.8-4.9,1.7c-0.9,0.5-1.7,1-2.6,1.5
		c-0.1,0.1-0.2,0.1-0.3,0.2c-0.2,0.1-0.5,0.1-0.7,0.2c-1,0.5-1.9,1-2.9,1.6c-1.2,0.7-2.4,1.4-3.6,2.1c-0.6,0.3-1,0.9-1.7,0.8
		c-0.1,0-0.2,0.1-0.3,0.2c-0.2,0.4-0.7,0.5-1.1,0.5c-0.1,0-0.3,0-0.3,0c-0.3,0.6-1.1,0.8-1.6,1.2c-0.3,0.3-0.6,0.8-1,1
		c-0.9,0.5-1.6,1.3-2.4,1.9c-0.5,0.4-0.8,0.9-1.3,1.3c-0.5,0.5-1.1,0.9-1.5,1.4c-0.6,0.9-1.7,1.4-2.1,2.5c0,0-0.1,0.1-0.1,0.1
		c-0.5,0.1-0.6,0.6-0.9,1c-0.2,0.3-0.5,0.6-0.7,1c-0.4,0.6-0.9,1.2-1.1,2c-0.1,0.8-0.7,1.3-1.2,1.9c-0.1,0.2-0.3,0.3-0.4,0.5
		c-0.8,1.3-1.2,2.9-2.2,4.1c-0.7,0.8-1,1.9-1.5,2.8c-0.3,0.7-0.6,1.4-1,1.9c-0.5,0.6-0.8,1.3-0.7,2.1c-0.8,0.4-1.4,1-1.6,1.9
		c-0.1,0.2-0.2,0.5-0.4,0.7c-0.5,0.6-0.9,1.2-1.4,1.8c-0.8,1-1.5,1.9-2.3,2.9c-0.4,0.5-0.8,1.1-1.3,1.6c-0.6,0.6-1.2,1.1-1.6,1.9
		c-0.1,0.2-0.3,0.4-0.4,0.6c-0.6,0.6-1.2,1.2-1.8,1.9c-0.8,1-1.7,2-2.2,3.2c-0.2,0.5-0.5,1.1-0.5,1.7c0,0.5-0.1,1-0.3,1.5
		c-0.5,1.1-0.7,2.2-0.7,3.4c0,1-0.1,1.9-0.3,2.9c-0.1,0.5-0.1,1,0,1.5c0.1,0.5,0.3,1-0.1,1.4c-0.1,0.1-0.1,0.4-0.1,0.5
		c-0.1,0.9-0.2,1.7-0.3,2.6c0,0.4,0,0.8,0,1.2c0,0.2,0.1,0.5,0,0.7c-0.1,0.5,0,0.9,0.1,1.3c0.1,0.4,0.3,0.7,0.4,1.1
		c0.4,0.1,0.8,0.4,1.1,0.3c0.3-0.1,0.5-0.6,0.9-1c0.2,0.2,0.4,0.4,0.6,0.5c0.3,0.2,0.6,0.2,0.9,0c-0.1-0.5,0.3-0.8,0.8-0.9
		c-0.3-0.5-0.5-0.9-0.7-1.3c-0.5-1.3-0.9-2.7-1-4.1c-0.1-0.5-0.2-0.8-0.6-1.1c-0.5-0.5-0.6-1.1-0.5-1.8c0.2-1,0.4-2,0.4-3.1
		c0-0.3,0.1-0.7,0.1-1c0.2-1.3,0.8-2.5,0.8-3.9c0-0.1,0-0.1,0-0.2c0.3-0.6,0.5-1.2,0.8-1.7c0.6-0.9,1-2,1.8-2.7
		c0.4-0.3,0.7-0.8,1-1.2c0.3-0.4,0.8-0.6,0.9-1.2c0-0.1,0.1-0.1,0.2-0.1c0.6-0.4,1.1-0.8,1.4-1.4c0.1-0.1,0.2-0.2,0.4-0.3
		c0.3-0.3,0.7-0.5,1-0.8c0.8-1,1.4-2.1,2.3-3c0.3-0.3,0.3-0.9,0.6-1.2c0.3-0.3,0.7-0.6,1-1c0.2-0.3,0.5-0.6,0.7-1
		c0.1,0.6,0.1,1.1-0.2,1.5c-0.6,0.9-0.4,2-0.5,3c-0.1,1,0,2,0,3c0,0.7,0,1.4,0,2.1c0.1,1.6,0.3,3.3,0.5,4.9c0.1,0.7,0.1,1.3,0.3,2
		c0.1,0.3,0.1,0.6,0.1,0.9c0,0.2,0,0.4,0,0.6c0.3,1.1,0.7,2.1,0.7,3.3c0,0.2,0.1,0.4,0.2,0.5c0.1,0.3,0.2,0.7,0.2,1
		c0,0.6,0.2,1.1,0.5,1.6c0.1,0.2,0.2,0.5,0.2,0.8c0,0.2-0.1,0.4,0,0.6c0.3,1.1,0.3,2.2,0.9,3.2c0.1,0.1,0.1,0.3,0.1,0.5
		c0,0.3,0,0.6,0.1,0.9c0.4,1.5,0.4,3.1,1.1,4.5c0.1,0.2,0.1,0.4,0.1,0.6c0,0.3,0.1,0.6,0.1,0.9c0.1,1,0.7,1.8,0.5,2.9
		c0,0,0,0.1,0,0.2c0.2,0.4,0.2,0.7,0.2,1.2c0,0.2,0.1,0.4,0.1,0.6c0.1,0.6,0.3,1.1,0.4,1.7c0,0.3,0.1,0.5,0.2,0.7
		c0.1,0.2,0.1,0.4,0.2,0.7c0,0.1,0,0.4,0.1,0.4c0.4,0.4,0.6,1,0.5,1.5c0,0.8,0.5,1.2,1.1,1.7c0.4-0.4,0.7-0.2,1.2-0.1
		c0.7,0.2,1.4,0.3,2.1,0.3c0.8,0,1.6,0,2.4,0.2c0.4,0.1,0.8,0.2,1.3,0.2c1.5,0,3,0,4.6,0c1.5,0,2.9,0,4.4-0.1c1,0,2-0.2,3-0.3
		c0.3,0,0.5-0.2,0.8-0.4c0.3-0.2,0.7-0.5,1-0.7c0.2-0.8,0.3-1.6,0-2.4c0-0.1,0-0.2,0-0.2c0.1-1.1,0.3-2.1,0.4-3.2
		c0-0.1,0.1-0.2,0.1-0.3c0.1-0.2,0.2-0.5,0.3-0.7c0.3-0.8,0.6-1.6,0.8-2.5c0.5-0.1,0.9,0,1.2-0.2c1-0.4,2.1-0.5,3.1-0.5
		c0.9,0,1.7-0.2,2.6-0.1c0.8,0,1.6-0.2,2.4-0.3c0.6,0,1.2,0.1,1.8,0.1c0.3,0,0.6,0,1,0c0.2,0,0.4-0.1,0.6-0.1c0.8,0,1.5,0,2.3,0
		c1.2,0,2.3,0,3.5,0c0.9,0,1.8,0,2.6,0c0.9,0,1.9,0,2.8,0c0.1,0,0.3,0,0.4,0c0.8-0.1,1.6-0.3,2.4-0.4c0.7-0.1,1.5-0.2,2.2-0.2
		c0.5,0,0.7,0.2,0.7,0.7c0,0.3-0.1,0.6-0.1,1c-0.1,1.1-0.5,2.1-0.2,3.3c0.1,0.4,0.1,0.8,0.1,1.3c0.1,0.5,0.1,1,0.2,1.5
		c0.3,0.1,0.7,0.1,0.8,0.3c0.3,0.4,0.7,0.4,1.1,0.4c1.5,0,3,0,4.5,0.1c1.8,0.1,3.6,0.2,5.4-0.3c0.1,0,0.2,0,0.2,0
		c0.7,0,1.4-0.1,2.2,0c0.7,0.1,1.4-0.2,2,0.1c0,0,0.1,0,0.2,0c0.4,0,0.8-0.1,1.2-0.1c0.7-0.1,1.4,0.2,2-0.3c0.1,0,0.2-0.1,0.3,0
		c0.8,0.5,1.6-0.4,2.3-0.1c0,0,0.1,0,0.1-0.1c0.3-0.2,0.6-0.4,1-0.6c0.6-0.3,0.8-0.7,0.9-1.4c0.3-3.2,0.8-6.4,1.4-9.6
		c0.5-2.7,1.2-5.3,2.3-7.8c0.5-1.2,1.1-2.4,2.3-3.2c1-0.7,2.3-0.9,3.4-1.2c0.1,0,0.2,0,0.3,0c0.5,0.2,1.1,0.3,1.7,0.4
		c0.8,0,1.5,0.1,2.3,0.1c0.6,0,1.3,0,1.9,0c0.9,0,1.9,0.2,2.8-0.1c1.3-0.4,2.6-0.3,3.9-0.4c0.5,0,1.1,0,1.5,0.5
		c0,0.1,0.1,0.1,0.2,0.1c0.9,0.3,1.8,0.7,2.5,1.4c0.7,0.7,1.3,1.3,2.2,1.7c0.4,0.2,0.8,0.3,1.1,0.6c0.6,0.4,1.5,0.6,1.9,1.3
		c0-0.2,0-0.4-0.1-0.7c0.4,0.3,0.9,0.1,1.1,0.6c0.2,0.6,0.8,0.9,1.4,1c0.9,0.2,1.8,0.3,2.7,0.8c0.1,0.1,0.3,0.1,0.5,0.1
		c0.4,0.1,0.8,0.1,1.2,0.2c0.6,0.1,1.3,0.4,1.9,0.3c1.3-0.2,2.7-0.6,3.9-1c1.2-0.3,2.3-0.8,3.4-1.2c1.8-0.7,3.5-1.7,5.2-2.8
		c0.7-0.5,1.4-1,2.1-1.5c0.5-0.3,1.1-0.5,1.1-1.2c0-0.2,0.2-0.3,0.3-0.5c0.3-0.6,0.7-1.1,0.9-1.8c0.5-1.5,1-3.1,1.3-4.7
		c0.1-0.3,0.1-0.6,0.2-0.9c0.1-1.2,0.2-2.4,0.2-3.5c0-0.1,0-0.3,0.1-0.4c0.2-1,0.3-2.1,0.5-3.1c0.2-1.7,0.4-3.5,0.5-5.2
		c0-0.2,0-0.4,0-0.6c0-0.7-0.1-1.3-0.1-2C212.1,79.1,212.1,76.2,211.8,73.4z M70.7,82.8c0-0.1,0-0.3,0-0.4c0,0,0.1,0,0.1,0
		c0,0.1,0,0.3,0.1,0.4C70.8,82.8,70.8,82.8,70.7,82.8z M71.1,82.1c-0.4-0.8-0.3-1,0.6-2.6C71.6,80.4,71.5,81.3,71.1,82.1z M74,106
		c-0.4-0.3-0.4-0.7-0.4-1.2c0.3,0.1,0.6-0.1,0.7,0.3C74.4,105.5,74.4,105.8,74,106z M75.9,108.3c-0.1-0.3-0.2-0.5-0.2-0.7
		c-0.3-0.9-0.5-1.8-0.7-2.7c-0.2-0.7,0-0.9,0.8-1C76.1,105.2,76.3,107.5,75.9,108.3z M76.8,73.3c-0.1-0.6-0.1-0.6,0.6-1.2
		C77.2,72.5,77,72.8,76.8,73.3z M87.7,129.6c0.6-0.5,0.7-0.5,1.1,0.1C88.4,130,88.1,129.9,87.7,129.6z M88.8,107.2
		c-0.1,0.1-0.4,0.1-0.4,0c-0.1-0.1-0.1-0.3-0.1-0.5c0-0.1,0.1-0.2,0.2-0.3c0.6-0.3,1.1-0.6,1.7-0.8C90,106.4,89.4,106.8,88.8,107.2z
		 M94.5,58.8c0,0.1,0.1,0.1,0.1,0.2c-0.2,0.1-0.3,0.2-0.6,0.3C94.1,58.8,94.3,58.8,94.5,58.8z M91.5,113.4c-0.1,0-0.1,0-0.2,0
		c0-0.1-0.1-0.3-0.1-0.4c0.2-0.3,0.5-0.3,0.9-0.2C92.1,113.1,91.7,113.2,91.5,113.4z M95.2,112c-0.3,0.2-0.6,0.3-1,0.4
		c-0.1-0.1-0.2-0.1-0.3-0.2c0-0.1,0-0.3,0.1-0.3c0.3-0.1,0.6-0.2,1-0.3c0.1,0,0.2,0.1,0.2,0.2C95.3,111.8,95.3,112,95.2,112z
		 M149,43.3c0.2,0.1,0.4,0.3,0.7,0.4c-0.4,0.2-0.7,0.2-0.8-0.2C148.9,43.4,149,43.3,149,43.3z M151.5,47.2c-0.5,0-1,0-1.4-0.2
		c-0.4-0.1-0.7-0.3-1.1-0.2c0,0-0.1-0.2-0.2-0.3C150.1,46.3,151,46.6,151.5,47.2z M145.9,42.9c0.1,0.1,0.1,0.1,0.2,0.3
		c-0.1,0.1-0.2,0.2-0.3,0.2c-0.1,0-0.1-0.1-0.2-0.2C145.8,43.1,145.9,43,145.9,42.9z M144.9,42.9c0.3-0.2,0.4,0,0.4,0.4
		c-0.2,0-0.4-0.1-0.6-0.1C144.8,43.1,144.8,43,144.9,42.9z M144.4,43.2c-0.4,0-0.6,0-0.9-0.1C143.8,42.8,143.8,42.8,144.4,43.2z
		 M138.9,59.6c0,0.1,0.1,0.2,0.1,0.2c0,0-0.1,0.1-0.2,0.1c0,0-0.1-0.1-0.1-0.1C138.8,59.7,138.9,59.7,138.9,59.6z M138,60.3
		c-0.1,0.5-0.1,0.5-0.6,0.7c0,0-0.1-0.1-0.1-0.1C137.5,60.8,137.7,60.6,138,60.3z M129.1,62.2c0.4-0.2,0.9-0.4,1.5-0.6
		c0,0.2,0,0.4,0,0.4c-0.8,0.5-1.4,1.3-2.4,1.6c-0.4,0.1-0.7,0.4-0.7,1c-0.2-0.4-0.5-0.4-0.7-0.2c-0.6,0.3-1.2,0.6-1.8,0.9
		c-0.2,0.1-0.3,0.1-0.6,0.2c0.4-0.9,1.1-1.2,1.7-1.6C127.1,63.2,128.1,62.7,129.1,62.2z M131.1,62.6c-0.3,0.9-1.2,0.9-1.8,1.4
		c-0.1,0.1-0.3,0-0.6,0C129.4,63.3,130.1,62.9,131.1,62.6z M126.7,66.2c-0.5,0.5-1.1,0.5-1.7,0.5C125.5,66.4,126,66,126.7,66.2z
		 M120,70.1c0.2-0.3,0.4-0.5,0.7-0.7c0.1-0.1,0.2-0.2,0.3-0.4c0.1-0.2,0.2-0.5,0.2-0.7c0.1-0.2,0.1-0.5,0.1-0.7
		c0.1-0.5,0.2-1,0.2-1.5c0.1-0.4,0.1-0.9,0.1-1.3c0.1-0.5,0.1-1,0.2-1.5c0-0.3,0.1-0.7,0.1-1c0.1-0.7,0.2-1.4,0.3-2.1
		c0.1-0.6,0.4-1.2,0.7-1.8c0.1-0.1,0.2-0.3,0.4-0.4c0.3-0.2,0.5-0.4,0.8-0.6c0.4-0.3,0.8-0.3,1.3-0.2c0.2,0,0.3,0.2,0.5,0.3
		c0.3,0.4,0.4,0.8,0.5,1.3c0,0.1,0,0.2,0,0.3c0.1,0,0.3-0.1,0.4-0.1c-0.1,0.3-0.2,0.4-0.4,0.5c0,0,0,0.1,0,0.1c0,0.1,0,0.3,0,0.4
		c0,0,0,0.1,0,0.1c0,0.4-0.2,0.7-0.2,1c-0.1,0.6-0.4,1.1-0.6,1.7c-0.1,0.3-0.4,0.7-0.5,1c-0.4,0.7-0.9,1.3-1.3,1.9
		c-0.2,0.4-0.5,0.7-0.8,1.1c-0.2,0.3-0.4,0.7-0.6,1c0,0,0,0.1,0,0.1c0.1,0.1,0.2,0.1,0.3,0c0.2-0.1,0.4-0.2,0.6-0.3
		c0.4-0.2,0.7-0.2,1.1-0.1c0.3,0.1,0.6,0.2,0.8,0.3c0.3,0.1,0.6,0.4,0.8,0.7c0.2,0.2,0.4,0.4,0.4,0.7c0,0.2,0.1,0.3,0.1,0.5
		c0.1,0.5,0.3,0.9,0.2,1.4c-0.1,0.4,0,0.8-0.1,1.2c-0.1,0.3-0.2,0.5-0.3,0.8c0,0.1-0.1,0.2-0.1,0.3c0,0.4-0.2,0.6-0.5,0.9
		c-0.2,0.2-0.4,0.4-0.6,0.5c-0.5,0.3-0.9,0.7-1.4,0.8c-0.5,0.1-0.9,0.2-1.4,0c-0.2,0-0.3-0.2-0.4-0.3c-0.4-0.3-0.6-0.6-0.8-1
		c-0.2-0.5-0.5-0.9-0.5-1.5c0-0.5,0-0.9,0-1.4c0-0.6,0.1-1.2,0.3-1.7c0,0,0-0.1,0-0.2c-0.4,0.3-0.6,0.6-0.9,0.9
		C119.9,70.2,119.9,70.2,120,70.1z M114.9,65.2c0.2,0,0.3,0,0.5,0.1c0.5,0.2,0.8,0.6,1.1,1c0.4,0.4,0.5,0.9,0.7,1.4
		c0.2,0.6,0.2,1.3,0.3,1.9c0.1,0.6,0.1,1.1,0.2,1.7c0.1,0.6,0.1,1.2,0.2,1.8c0,0.2,0,0.4-0.1,0.6c-0.1,0.2,0,0.4-0.1,0.6
		c0,0.1,0,0.1,0,0.2c-0.1,0.2,0,0.4,0,0.6c0,0.1,0,0.2,0,0.2c0,0.3,0,0.5,0.3,0.7c0.1-0.1,0.2-0.1,0.3-0.2c0.3-0.3,0.7-0.5,0.9-0.9
		c0.3-0.4,0.5-0.9,0.5-1.4c0-0.2,0.1-0.5,0-0.7c0-0.2,0.1-0.4-0.2-0.5c0.1-0.3,0.1-0.3,0.5-0.3c0.2,0.2,0.1,0.4,0.1,0.6
		c0,0.2,0,0.3,0,0.5c0,0.6-0.2,1.2-0.5,1.7c-0.3,0.5-0.7,0.8-1.2,1.2c-0.2,0.1-0.4,0.2-0.5,0.3c-0.2,0.1-0.5,0.2-0.8,0.2
		c-0.6,0-1.1-0.3-1.4-0.8c-0.2-0.3-0.3-0.6-0.4-0.9c-0.1-0.2-0.1-0.5-0.2-0.7c-0.1,0.1-0.2,0.2-0.3,0.3c-0.1,0.2-0.3,0.3-0.5,0.4
		c-0.3,0.2-0.5,0.3-0.8,0.5c-0.3,0.2-0.6,0.3-0.8,0.4c-0.5,0.2-1,0.4-1.6,0.3c-0.3,0-0.6-0.1-0.8-0.1c-0.1,0-0.1,0-0.2-0.1
		c-0.5-0.3-0.7-0.7-0.8-1.2c-0.1-0.4-0.1-0.8,0-1.3c0.1-0.3,0.2-0.5,0.4-0.7c0.4-0.5,0.9-0.9,1.5-1.1c0.3-0.2,0.7-0.3,1.1-0.4
		c0.4-0.1,0.8-0.3,1.1-0.5c0.2-0.2,0.5-0.3,0.8-0.4c0.2-0.1,0.3-0.2,0.5-0.3c0-0.2-0.1-0.4-0.1-0.6c-0.1-0.4-0.2-0.8-0.4-1.2
		c-0.1-0.2-0.2-0.4-0.4-0.5c-0.1-0.2-0.3-0.3-0.4-0.4c-0.2-0.2-0.4-0.4-0.7-0.5c-0.3-0.1-0.6-0.1-0.8,0.1c-0.1,0.1-0.2,0.1-0.3,0.2
		c-0.2,0.2-0.4,0.4-0.5,0.7c-0.1,0.2-0.2,0.4-0.2,0.7c0,0.2,0,0.4,0.1,0.5c0.1,0.3,0,0.4-0.2,0.5c-0.2,0.1-0.3,0-0.3-0.1
		c0-0.1,0-0.1,0-0.2c-0.1-0.7,0.1-1.3,0.4-1.8c0.2-0.3,0.5-0.6,0.8-0.8c0.1-0.1,0.2-0.1,0.4-0.2c0.5-0.2,1-0.4,1.5-0.6
		C113.9,65.3,114.4,65.2,114.9,65.2z M111.4,63.9c0.2-0.3,0.4-0.6,0.9-0.7C112.2,63.9,112.2,63.9,111.4,63.9z M106.5,63.7
		c0.4-0.4,0.9-0.8,1.3-1.1c0.2-0.2,0.5-0.4,0.8-0.6c0.9-0.8,2.1-0.9,3.2-1.4c0.1,0.1,0.4,0.2,0.4,0.4c0.1,0.2,0,0.4-0.1,0.6
		c-0.2,0.2-0.5,0.3-0.8,0.4c-0.4,0.2-0.7,0.3-1.1,0.5c-0.5,0.3-1,0.6-1.5,0.8c-0.6,0.3-1.2,0.6-1.9,0.9c-0.1,0.1-0.3,0-0.5,0
		C106.4,64.1,106.4,63.8,106.5,63.7z M96.4,70.3c0.3-0.1,0.7-0.4,1.1-0.3c0-0.3,0-0.7-0.1-1c0,0,0,0,0-0.1c0-0.7-0.1-1.4-0.1-2.1
		c-0.1-1-0.1-2-0.2-3.1c0-0.7-0.1-1.3-0.1-2c0-0.4,0-0.8,0-1.2c0-0.5,0.1-1,0.2-1.5c0-0.1,0.1-0.2,0.2-0.2c0.1,0,0.3-0.1,0.4-0.1
		c0.3-0.1,0.6-0.2,0.9-0.4c0.3-0.2,0.6-0.4,1-0.6c0.1-0.1,0.2-0.1,0.3-0.2c0.2-0.1,0.3-0.3,0.5-0.4c0.8-0.5,1.6-0.7,2.5-0.8
		c0.3,0,0.5,0,0.8,0c0.2,0,0.4,0.2,0.7,0.2c0.1,0,0.2,0.1,0.2,0.1c0.1,0,0.2,0.1,0.3,0.2c0,0.1,0.1,0.1,0.1,0.2
		c0.1,0.1,0.2,0.3,0.2,0.4c0,0.3,0.1,0.5,0.2,0.7c0,0.1,0,0.2,0,0.3c0,0.2,0,0.3,0,0.5c0.1,0.4,0,0.8-0.1,1.2c0,0.1,0,0.2,0,0.3
		c0,0.5-0.1,1-0.2,1.5c-0.1,0.2-0.1,0.4-0.2,0.6c-0.1,0.3-0.3,0.6-0.5,0.9c-0.1,0.1-0.2,0.3-0.3,0.4c0,0-0.1,0.1-0.1,0.1
		c-0.1,0.1-0.2,0.1-0.3,0.2c-0.1,0.1-0.2,0.2-0.3,0.3c0,0-0.1,0.1-0.1,0.1c-0.2,0.2-0.2,0.3,0.1,0.4c0.2,0.1,0.5,0.1,0.7,0.2
		c0.4,0.1,0.8,0.3,1.2,0.5c0.3,0.2,0.6,0.4,0.9,0.8c0.3,0.4,0.6,0.7,0.8,1.1c0.2,0.3,0.3,0.6,0.4,0.9c0.1,0.2,0.1,0.4,0.2,0.5
		c0.2,0.3,0.2,0.7,0.3,1.1c0.1,0.3,0.1,0.7,0,1c0,0.1,0,0.3,0,0.4c-0.1,0.4-0.1,0.9-0.3,1.2c-0.1,0.1-0.1,0.3-0.2,0.4
		c-0.1,0.4-0.4,0.6-0.7,0.9c-0.2,0.2-0.5,0.4-0.7,0.6c-0.4,0.4-0.9,0.6-1.4,0.9c0,0-0.1,0-0.1,0.1c-0.3,0.1-0.6,0.3-0.9,0.4
		c-0.5,0.2-1,0.3-1.6,0.3c-0.5,0.1-1,0.1-1.6,0.1c-0.4,0-0.8,0-1.2,0c-0.2,0-0.5,0-0.7,0.1c-0.1,0-0.2,0-0.4,0
		c-0.1,0-0.2-0.1-0.2-0.2c0-0.1-0.1-0.2-0.1-0.3c0-0.1,0.1-0.2,0.2-0.2c0.1-0.1,0.1-0.2,0.1-0.3c0-0.4,0-0.8,0-1.2
		c-0.1-0.9-0.1-1.8-0.2-2.6c0-0.4-0.1-0.8-0.1-1.2c-0.2,0.3-0.5,0.5-0.9,0.5c-0.2,0-0.3-0.1-0.5-0.2C96.2,70.6,96.3,70.4,96.4,70.3z
		 M96,82.6c0-0.3,0.2-0.6,0.3-0.8c0.1-0.2,0.3-0.3,0.4-0.4c0.3-0.3,0.7-0.6,1.1-0.8c0.2-0.1,0.4-0.1,0.6-0.2
		c0.2-0.1,0.4-0.2,0.6-0.3c0.2-0.1,0.4-0.2,0.7-0.3c0.3-0.2,0.7-0.3,1-0.4c0.3-0.1,0.7-0.1,1,0c0.5,0.2,0.9,0.4,1.3,0.7
		c0.5,0.4,0.8,1,1,1.6c0.1,0.2,0.2,0.5,0.2,0.7c0.1,0.2,0,0.2-0.2,0.3c-0.2,0.1-0.4,0.1-0.6,0.3c0,0-0.1,0-0.1,0
		c-0.2,0.1-0.4,0.1-0.5,0.2c-0.3,0.2-0.7,0.3-1.1,0.4c-0.1-0.2-0.2-0.4-0.2-0.5c-0.1-0.3-0.2-0.6-0.3-0.8c-0.3-0.6-0.7-1.1-1.3-1.4
		c-0.2-0.1-0.5-0.2-0.7-0.3c-0.1-0.1-0.2,0-0.3,0.1c-0.3,0.3-0.5,0.7-0.5,1.1c0,0.6,0.2,1.1,0.6,1.6c0.1,0.1,0.2,0.2,0.2,0.3
		c0.1,0.2,0.3,0.3,0.3,0.5c0,0.1,0,0.1,0.1,0.2c0.4,0.5,0.8,1,1.3,1.5c0.2,0.2,0.4,0.4,0.6,0.6c0.3,0.2,0.5,0.4,0.7,0.6
		c0.1,0.1,0.1,0.1,0.2,0.1c0.2,0.1,0.3,0.2,0.4,0.3c0.1,0.1,0.1,0.1,0.2,0.2c0.2,0.1,0.4,0.3,0.6,0.5c0.2,0.4,0.5,0.7,0.8,1.1
		c0.2,0.3,0.3,0.6,0.4,0.9c0.3,0.7,0.5,1.4,0.4,2.2c0,0.2-0.1,0.3-0.1,0.5c0,0,0,0,0,0c0,0.4-0.2,0.7-0.3,1
		c-0.1,0.1-0.2,0.3-0.2,0.5c-0.2,0.4-0.4,0.7-0.7,0.9c-0.3,0.2-0.6,0.4-0.9,0.6c-0.4,0.2-0.8,0.4-1.3,0.5c-0.5,0.1-1,0.1-1.4,0.1
		c-0.3,0-0.7-0.1-1-0.2c-0.5-0.2-1-0.4-1.5-0.7c-0.5-0.2-0.8-0.6-0.9-1.2c0-0.1-0.1-0.2-0.1-0.3c0.1-0.1,0.1-0.3,0.2-0.4
		c0.1-0.1,0.2-0.1,0.3,0c0.1,0.1,0.3,0.3,0.3,0.5c0.1,0.4,0.3,0.6,0.6,0.9c0.1,0.1,0.2,0.1,0.3,0.2c0.6,0.3,1.3,0.6,2.1,0.7
		c0.2,0,0.5,0.1,0.8,0.1c0.3,0,0.6-0.1,0.9-0.1c0.1,0,0.2-0.1,0.3-0.1c0.6-0.1,1.1-0.4,1.4-0.9c0.3-0.4,0.5-0.8,0.7-1.3
		c0.1-0.3,0.2-0.6,0.2-0.9c0-0.3,0-0.7,0-1c-0.2-0.8-0.5-1.5-1-2.2c-0.4-0.5-0.9-1-1.5-1.3c-0.6-0.4-1.2-0.7-1.9-1.1
		c-0.7-0.3-1.3-0.6-2-1c-0.7-0.3-1.4-0.8-1.9-1.4C96.3,84.1,96,83.4,96,82.6z M98.3,120c-0.2,0.1-0.3,0.2-0.5,0.2
		c-0.1,0-0.2-0.2-0.2-0.2c0.2-0.1,0.3-0.2,0.5-0.3c0.1,0,0.2,0.1,0.4,0.1C98.4,119.9,98.4,120,98.3,120z M99.7,120
		c-0.4,0.1-0.4,0-0.7-0.4c0.9-0.2,1.7-0.3,2.6-0.2C101.2,120.1,100.4,119.8,99.7,120z M108.1,113.3c-0.2-0.2-0.3-0.4-0.5-0.5
		c-0.7-0.8-1.3-1.7-1.8-2.6c-0.2-0.3-0.4-0.7-0.6-1c-0.2-0.2-0.4-0.5-0.6-0.7c0,0,0,0,0,0c0,0,0,0,0,0c-0.2-0.2-0.4-0.3-0.6-0.5
		c-0.2-0.1-0.4-0.2-0.6-0.3c-0.1,0-0.1-0.1-0.1-0.1c-0.1-0.1-0.2-0.2-0.3-0.1c-0.5,0.1-1,0.2-1.4,0.2c-0.2,0-0.4,0-0.6,0
		c0,0.3,0,0.5,0,0.8c0,1,0,2,0,3c0,0.6,0,1.2,0,1.8c0,0.4,0,0.8,0,1.2c0,0.1-0.1,0.2-0.2,0.3c-0.2,0.1-0.5,0.2-0.7,0.3
		c-0.2,0.1-0.4,0.1-0.5,0.1c-0.1,0-0.3,0.1-0.4,0.1c-0.2,0.1-0.5,0.1-0.8,0.2c0-0.1,0-0.2,0-0.3c0-0.8,0.1-1.7,0.1-2.5c0-1,0-2,0-3
		c0-0.5,0-1,0-1.5c0-0.7,0-1.4-0.1-2c0-0.8-0.1-1.6-0.1-2.4c0-0.7-0.1-1.5-0.2-2.2c0-0.4-0.1-0.7-0.2-1.1c0-0.2-0.1-0.2-0.2-0.1
		c-0.2,0-0.3,0.1-0.5,0.1c-0.1,0-0.2,0-0.3,0.1c-0.1-0.1,0-0.2,0.1-0.2c0.5-0.2,0.9-0.4,1.4-0.6c0.3-0.1,0.7-0.2,1-0.3
		c0.4-0.1,0.8-0.2,1.1-0.3c0.3-0.1,0.7-0.2,1.1-0.3c0.3-0.1,0.6-0.2,0.9-0.2c0.5-0.1,1-0.1,1.5-0.2c0.5-0.1,0.9,0,1.4,0.1
		c0.1,0,0.3,0.1,0.4,0.1c0.1,0,0.2,0.1,0.3,0c0.1,0,0.2,0,0.2,0.1c0.2,0.1,0.5,0.2,0.7,0.3c0,0,0.1,0,0.1,0.1
		c0.3,0.4,0.7,0.7,0.9,1.2c0.2,0.5,0.3,0.9,0.4,1.4c0,0.5,0.1,0.9,0.1,1.4c0,0.5,0,1.1-0.1,1.6c-0.1,0.3-0.2,0.6-0.3,0.9
		c-0.2,0.3-0.4,0.5-0.7,0.7c-0.3,0.1-0.6,0.3-0.9,0.5c-0.1,0-0.2,0.1-0.3,0.1c0.1,0.1,0.2,0.2,0.2,0.3c1,0.6,1.6,1.5,2.2,2.5
		c0.4,0.7,0.8,1.4,1.3,2c0.4,0.5,0.8,1,1.2,1.4c0.5,0.6,1.2,1,1.8,1.4c0.1,0,0.1,0.1,0.2,0.1c0.2,0.1,0.3,0.2,0.6,0.2
		c0.2,0,0.4,0.1,0.6,0.3c0.1,0.1,0.2,0.1,0.3,0.1c0,0,0.1,0,0.1,0c0.2,0.1,0.4,0.1,0.6,0c0.1,0,0.1,0,0.2,0.1c0,0,0,0,0,0.1
		c-0.1,0-0.3,0.1-0.4,0.1c-0.3,0.1-0.6,0.2-0.9,0.3c-0.2,0.1-0.4,0.1-0.6,0.1c-0.2,0-0.5,0-0.7,0c-0.5,0-1.1,0-1.5-0.3
		C110,115,109,114.3,108.1,113.3z M113,120c-0.3,0.2-0.7,0.1-1-0.4c0.4-0.1,0.6-0.2,0.9-0.2C113.1,119.6,113.2,119.8,113,120z
		 M111.3,118.6c0.7-0.1,1.4-0.4,2.1-0.3c0.8,0,1.7-0.3,2.6,0.1C115.2,118.6,111.8,118.9,111.3,118.6z M116.1,119.9
		c-0.6,0-1.2,0.1-1.8,0.1c-0.1,0-0.2-0.2-0.4-0.3c0.9-0.4,1.6-0.2,2.3-0.1C116.2,119.7,116.2,119.9,116.1,119.9z M116.7,113.1
		c-0.3,0.1-0.5,0.2-0.8,0.3c-0.4,0-0.7,0.1-1.1,0.1c-0.5,0-0.9-0.3-1.3-0.6c-0.6-0.4-1-1.1-1.4-1.7c-0.4-0.7-0.5-1.5-0.4-2.2
		c0.1-0.8,0.4-1.4,1-1.9c0.5-0.3,1-0.5,1.5-0.6c0.2,0,0.4-0.1,0.5-0.2c0.5-0.3,1-0.5,1.7-0.5c0.1,0,0.4,0.1,0.7,0.1
		c0.4,0.1,0.7,0.3,1,0.4c0.3,0.1,0.6,0.2,0.9,0.5c0.1,0.1,0.3,0.3,0.4,0.4c0.1,0.2,0.3,0.5,0.2,0.7c0.1,0.2,0.1,0.4,0,0.6
		c0,0,0,0.1,0,0.1c0.2,0.3,0.1,0.6,0,0.9c0,0.1,0,0.3,0,0.4c0,0.3-0.1,0.5-0.1,0.8c0,0.1,0,0.3,0,0.4c-0.1,0.4-0.3,0.7-0.6,0.9
		c-0.1,0.1-0.2,0.2-0.3,0.3c-0.1,0.2-0.3,0.3-0.5,0.4C117.6,112.8,117.2,112.9,116.7,113.1z M124.4,119.4c-0.7,0.1-1.3,0.4-2,0.2
		c-0.4-0.1-0.9,0.2-1.3-0.1c-0.1-0.1-0.4,0.2-0.6,0.2c-0.8,0.1-1.6,0.2-2.4,0.3c-0.4,0-0.6-0.2-0.7-0.6c0.9-0.3,1.7-0.4,2.6-0.2
		c0.1,0,0.3,0,0.4,0c1.4-0.3,2.9-0.2,4.3-0.2c0.1,0,0.3,0.1,0.4,0.3C124.9,119.3,124.6,119.3,124.4,119.4z M120.3,118
		c0.3,0,0.5-0.1,0.8-0.1c0,0.1,0,0.1,0,0.2C120.8,118,120.6,118,120.3,118C120.3,118,120.3,118,120.3,118z M126.8,110.6
		c0,0.2-0.2,0.3-0.3,0.5c-0.1,0.2-0.2,0.3-0.2,0.5c0,0.1,0,0.1-0.1,0.2c-0.2,0.3-0.6,0.4-0.9,0.5c-0.3,0.1-0.7,0.2-1,0.3
		c-0.3,0.1-0.7,0.2-1,0.2c-0.4,0-0.8,0.1-1.2,0c-0.4-0.1-0.7-0.4-0.9-0.8c-0.3-0.5-0.3-1-0.2-1.6c0-0.7,0.3-1.4,0.6-2.1
		c0.1-0.3,0.3-0.6,0.5-0.8c0.2-0.2,0.3-0.2,0.6-0.2c0.1,0.1,0.1,0.3,0.1,0.4c-0.1,0.1-0.1,0.3-0.1,0.5c0,0.2-0.1,0.4-0.1,0.5
		c0,0.6,0,1.1,0,1.7c0,0.2,0.1,0.3,0.2,0.5c0.2,0.2,0.4,0.4,0.5,0.7c0.1,0.3,0.4,0.5,0.7,0.6c0.2,0.1,0.4,0,0.5,0
		c0.6-0.3,1-0.8,1.3-1.4c0.1-0.2,0.3-0.5,0.3-0.8c0-0.1,0-0.3,0-0.4c0-0.4,0-0.8-0.2-1.2c-0.2-0.5-0.5-0.9-1-1.2
		c-0.2-0.1-0.4-0.2-0.8-0.2c-0.1,0.2-0.2,0.3-0.4,0.3c-0.2,0-0.4,0.1-0.5,0.2c-0.1,0-0.2,0-0.3,0.1c-0.1-0.2,0-0.3,0.1-0.4
		c0.1,0,0.2-0.1,0.3-0.1c0.1-0.1,0.3-0.2,0.5-0.1c0.1,0,0.2,0,0.3,0c0.3,0,0.6-0.1,0.8-0.1c0.4,0,0.7,0.2,1,0.5
		c0.1,0.2,0.2,0.3,0.4,0.5c0.2,0.2,0.3,0.4,0.3,0.6c0.1,0.3,0.2,0.5,0.2,0.8C126.9,109.7,126.9,110.1,126.8,110.6z M128.4,93.6
		c-0.1,0.2-0.3,0.3-0.4,0.5c-0.4,0.4-0.8,0.6-1.3,0.7c0,0-0.1,0-0.1,0.1c-0.3,0.2-0.5,0.1-0.8-0.2c-0.2-0.3-0.3-0.6-0.4-1
		c-0.1-0.6-0.2-1.1-0.2-1.7c0-0.2,0-0.4,0-0.6c-0.2,0-0.5,0-0.7,0c-0.1,0-0.3,0-0.4-0.1c0,0,0,0,0,0c0,0,0,0-0.1,0.1
		c-0.3,0.2-0.5,0.5-0.6,0.9c-0.1,0.1-0.1,0.3-0.2,0.4c-0.1,0.1-0.2,0.3-0.2,0.4c-0.1,0.2-0.1,0.5-0.3,0.6c-0.1,0.1-0.1,0.2-0.1,0.3
		c-0.1,0.2-0.2,0.4-0.4,0.5c-0.2,0.1-0.5,0.3-0.7,0.4c-0.5,0.3-1,0.3-1.6,0.4c-0.5,0-0.9-0.1-1.3-0.3c-0.3-0.2-0.5-0.5-0.7-0.8
		c-0.2-0.3-0.4-0.7-0.4-1.1c-0.3,0.4-0.6,0.7-0.9,1.1c-0.2,0.2-0.3,0.3-0.5,0.5c-0.2,0.1-0.4,0.3-0.6,0.4c-0.2,0.1-0.5,0.1-0.7,0
		c-0.3-0.1-0.5-0.2-0.7-0.4c-0.5-0.5-0.8-1.1-1.1-1.7c-0.2-0.6-0.4-1.2-0.5-1.8c-0.1-0.6-0.3-1.2-0.5-1.8c-0.1-0.3-0.1-0.5-0.2-0.8
		c-0.1-0.2-0.1-0.4-0.2-0.5c-0.1-0.2-0.3-0.2-0.5-0.1c-0.2,0.1-0.3,0.2-0.4,0.4c-0.2,0.2-0.4,0.5-0.6,0.7c-0.2,0.2-0.3,0.5-0.4,0.8
		c-0.1,0.3-0.2,0.6-0.3,1c-0.1,0.3-0.1,0.6-0.2,0.9c-0.1,0.7-0.2,1.3-0.2,2c0,0.4-0.1,0.8-0.1,1.2c0,0.1,0,0.2-0.2,0.3
		c-0.3,0.2-0.6,0.3-0.8,0.5c-0.1,0.1-0.3,0.1-0.5,0.2c0-0.2-0.1-0.4-0.1-0.6c-0.1-1.1,0-2.1,0-3.2c0-0.3,0-0.6,0-0.9
		c0-0.4,0.1-0.9,0.1-1.3c0-0.8,0.1-1.7,0.1-2.5c-0.1-0.8-0.2-1.6-0.3-2.4c-0.1-0.4-0.1-0.9-0.2-1.3c-0.1-0.7-0.3-1.4-0.4-2.1
		c-0.1-0.5-0.2-1.1-0.4-1.6c0-0.1,0-0.2,0.1-0.2c0.2-0.1,0.5-0.2,0.7-0.3c0.5-0.2,1-0.4,1.4-0.6c0.2-0.1,0.3-0.1,0.4,0.2
		c0.1,0.5,0.2,1,0.3,1.5c0.1,0.3,0.1,0.6,0.2,0.9c0.1,0.5,0.1,0.9,0.2,1.4c0.1,0.6,0.2,1.1,0.3,1.7c0.1,0.6,0.2,1.2,0.2,1.7
		c0,0.4,0,0.7-0.1,1.1c0,0.2-0.1,0.3-0.2,0.4c-0.1,0.3-0.1,0.5-0.2,0.9c0.2-0.1,0.3-0.2,0.4-0.3c0.3-0.3,0.6-0.4,0.9-0.5
		c0.2-0.1,0.4-0.2,0.5-0.2c0.1-0.1,0.3-0.1,0.4-0.2c0.1,0,0.1,0,0.2,0c0.2,0.1,0.5,0.2,0.7,0.3c0.1,0,0.2,0.1,0.2,0.2
		c0.1,0.1,0.1,0.2,0.2,0.2c0.3,0.2,0.5,0.5,0.7,0.7c0.1,0.1,0.1,0.2,0.2,0.3c0.3,0.7,0.4,1.4,0.2,2.1c0,0.1,0,0.2,0,0.3
		c0,0.3,0,0.5,0,0.8c0,0.2-0.1,0.4,0,0.6c0,0,0,0.1,0,0.2c-0.1,0.4,0.1,0.8,0.3,1.1c0.1,0.1,0.1,0.3,0.2,0.4
		c0.2,0.2,0.3,0.6,0.7,0.5c0,0,0.1,0,0.1,0c0.2-0.1,0.4-0.2,0.6-0.4c0.4-0.4,0.7-0.8,1-1.3c0.2-0.4,0.4-0.8,0.6-1.2
		c0.1-0.1,0.1-0.2,0.2-0.3c0-0.1,0.1-0.1,0.2-0.1c0.1,0,0.2,0,0.2,0c0,0.1,0,0.2,0,0.2c0,0.2-0.1,0.3-0.1,0.5c-0.1,0.2,0,0.3,0,0.5
		c0,0.1,0,0.1,0,0.2c0,0.5,0.2,1,0.4,1.4c0.2,0.4,0.5,0.6,0.9,0.7c0.1,0,0.3,0.1,0.4,0.1c0.3,0,0.6,0,0.9-0.2
		c0.2-0.1,0.5-0.2,0.7-0.4c0.3-0.2,0.3-0.5,0.3-0.7c0.1-0.5,0-1.1-0.1-1.6c-0.1-0.3-0.3-0.5-0.4-0.8c-0.2-0.3-0.5-0.6-0.8-0.8
		c-0.2-0.1-0.4-0.2-0.6-0.3c-0.1,0-0.2,0-0.2,0c-0.4,0.2-0.8,0.3-1.1,0.5c0,0,0,0,0,0c-0.1,0-0.2,0-0.2,0c0-0.1,0-0.1,0-0.2
		c0.1-0.3,0.3-0.6,0.6-0.7c0.3-0.1,0.7-0.3,1-0.4c0.5-0.1,1-0.3,1.4-0.4c0,0,0,0,0.1,0c0-0.2-0.1-0.4-0.1-0.6c0-0.3,0.1-0.7,0.1-1
		c0.1-0.7,0.4-1.3,0.8-2c0.2-0.3,0.3-0.6,0.5-0.9c0.2-0.3,0.4-0.5,0.5-0.8c0.4-0.6,0.8-1.2,1.3-1.7c0.4-0.5,0.8-0.9,1.3-1.3
		c0.6-0.5,1.1-1.1,1.7-1.6c0.8-0.7,1.7-1.5,2.6-2.1c0.6-0.4,1.2-0.8,1.8-1.1c0.2-0.1,0.4-0.3,0.7-0.4c0.1-0.1,0.2-0.1,0.2-0.3
		c0-0.6,0.1-1.2,0.1-1.8c0-0.3,0-0.6,0-1c-0.2,0.1-0.3,0.2-0.5,0.3c-0.4,0.3-0.9,0.4-1.4,0.4c-0.2,0-0.4,0-0.5,0
		c-0.8-0.2-1.4-0.7-1.7-1.5c-0.2-0.6-0.4-1.3-0.4-1.9c0-0.2,0-0.4-0.1-0.6c0-0.1-0.1-0.2-0.2-0.1c0.1-0.4,0.4-0.7,0.8-0.8
		c0.1,0,0.2,0,0.2,0.1c0.1,0.6,0.1,1.1,0.2,1.7c0,0.3,0.2,0.5,0.2,0.7c0,0.1,0.1,0.2,0.1,0.3c0.1,0.4,0.3,0.7,0.6,1
		c0.5,0.4,1.1,0.6,1.7,0.6c0.1,0,0.3,0,0.4-0.1c0.1-0.1,0.2-0.2,0.3-0.3c0.2-0.1,0.2-0.3,0.2-0.5c0-0.7-0.1-1.3-0.1-2
		c0-0.7-0.1-1.4,0-2.1c0-0.1,0.1-0.2,0.2-0.2c0.7-0.3,1.3-0.6,2-0.9c0.2-0.1,0.3-0.1,0.5-0.2c0.1,0,0.2,0,0.2,0.2c0,0.1,0,0.1,0,0.2
		c0,0.7-0.1,1.3-0.1,2c0,0.2,0,0.4,0,0.7c0,0.4,0,0.7,0,1.1c0,0.5,0,0.9,0,1.4c0,0.3-0.1,0.6-0.1,0.9c0,0.4-0.1,0.8-0.1,1.2
		c0.1,0,0.1-0.1,0.2-0.1c0.2,0,0.4-0.3,0.6-0.3c0.2,0,0.4-0.1,0.6-0.2c0.2-0.1,0.5-0.2,0.7-0.2c0.4-0.1,0.8-0.2,1.2-0.2
		c0.1,0,0.3,0,0.4,0c0.1,0,0.1,0,0.2,0c0.1-0.1,0.2,0,0.3,0.2c-0.2,0.1-0.3,0.2-0.5,0.3c0,0-0.1,0-0.1,0c-0.1-0.1-0.2,0-0.3,0
		c0,0-0.1,0-0.2,0c-0.2-0.2-0.5-0.1-0.7-0.1c-0.6,0.1-1.1,0.3-1.7,0.6c-0.2,0.1-0.4,0.2-0.7,0.3c-0.2,0.1-0.3,0.2-0.4,0.4
		c0,0.1-0.1,0.1-0.1,0.2c0,0.4,0,0.8-0.2,1.2c0,0,0,0.1,0,0.1c0.1,0.6-0.1,1.2-0.2,1.9c0,0.1,0,0.1,0,0.2c-0.3,0.5-0.5,1.1-0.7,1.6
		c0,0.1-0.1,0.3-0.2,0.4c-0.1,0.3-0.2,0.6-0.3,1c-0.1,0.3-0.2,0.5-0.3,0.8c-0.2,0.5-0.3,1-0.5,1.5c0,0.1,0,0.1-0.1,0.1
		c-0.3,0.3-0.3,0.8-0.5,1.1c-0.1,0.1-0.2,0.3-0.2,0.4c0,0.1-0.1,0.2-0.1,0.3c-0.2,0.5-0.4,1-0.6,1.5c-0.2,0.4-0.4,0.7-0.6,1
		c-0.1,0.1-0.2,0.3-0.3,0.4c-0.3,0.5-0.8,1-1.2,1.4c-0.3,0.3-0.6,0.6-1,0.8c0,0-0.1,0-0.1,0.1c0,0.1,0.1,0.1,0.1,0.2
		c0.1,0.1,0.1,0.3,0,0.4c-0.3,0.4-0.5,0.8-0.8,1.3c0,0,0,0.1,0,0.1c0,0.2-0.1,0.4-0.2,0.5c-0.1,0.3-0.2,0.5-0.2,0.8
		c0,0.1,0.1,0.3,0.1,0.4c0.1,0.1,0.2,0.1,0.3,0c0.3-0.1,0.6-0.3,0.8-0.5c0.3-0.3,0.6-0.6,0.8-0.9c0.4-0.6,0.7-1.3,0.9-2
		c0.1-0.4,0.2-0.4,0.6-0.4c0,0.1,0,0.3-0.1,0.4c-0.1,0.6-0.1,1.2-0.2,1.8c0,0.3,0.1,0.5,0.1,0.8c0.1,0.5,0.4,0.9,0.7,1.2
		c0.1,0.1,0.2,0.1,0.3,0.1c0.3,0.1,0.6,0.2,0.9,0.1c0.2-0.1,0.4-0.2,0.6-0.3c0.6-0.4,1.2-0.9,1.7-1.5c0.4-0.5,0.8-1,1-1.6
		c0.1-0.4,0.2-0.9,0.3-1.3c0.2-0.8,0.2-1.6,0.2-2.3c0-0.5,0-1-0.3-1.5c-0.1-0.1-0.1-0.3-0.1-0.5c0-0.1,0.2-0.2,0.3-0.2
		c0.1,0,0.2,0,0.3-0.1c0.1-0.1,0.3-0.1,0.4-0.1c0.3-0.1,0.5-0.1,0.8-0.2c0.3-0.1,0.5-0.1,0.8-0.2c0.1,0,0.2,0,0.3,0.1
		c0,0.1-0.1,0.2-0.2,0.2c-0.3,0.1-0.6,0.2-0.9,0.2c-0.1,0-0.2,0.1-0.2,0.2c0,0.2,0,0.4,0,0.5c0,0.2-0.1,0.4-0.2,0.6
		c0,0.1-0.1,0.2-0.1,0.3c0,0.8-0.1,1.5-0.2,2.3c-0.1,0.5-0.2,1.1-0.3,1.6c-0.1,0.5-0.4,1-0.7,1.4c-0.5,0.6-1.1,1.2-1.8,1.6
		c-0.1,0.1-0.2,0.1-0.3,0.2c-0.3,0.3-0.8,0.5-1.2,0.6c-0.3,0.1-0.7,0.2-1,0.2c-0.2,0-0.5-0.1-0.7-0.1c-0.3-0.1-0.4-0.3-0.6-0.5
		c-0.3-0.5-0.5-1.1-0.5-1.8c0-0.1,0-0.1,0-0.2c0,0,0,0,0-0.1C128.8,93.1,128.6,93.3,128.4,93.6z M132,102.3c0,0-0.1,0-0.2,0.1
		c0-0.1,0-0.1,0-0.2c0,0,0.1,0,0.1-0.1C132,102.2,132,102.3,132,102.3z M146.7,123.5c-0.1-0.6,0.3-0.8,0.6-1
		C147.4,122.9,147.1,123.2,146.7,123.5z M149.4,107.6c-0.1,0.4-0.2,0.8-0.4,1.2c-0.2,0.4-0.4,0.8-0.7,1.1c-0.1,0.1-0.2,0.2-0.3,0.3
		c-0.2,0.3-0.5,0.6-0.8,0.9c-0.4,0.4-0.8,0.9-1.3,1.2c-0.4,0.3-0.9,0.6-1.3,0.8c-0.5,0.3-1,0.4-1.5,0.6c-0.4,0.1-0.8,0.1-1.2,0.2
		c-0.7,0.1-1.5,0.1-2.2-0.1c-0.5-0.1-1-0.4-1.3-0.8c-0.4-0.5-0.6-1.1-0.7-1.7c-0.1-0.8-0.2-1.5-0.2-2.3c0-0.5-0.1-1.1-0.1-1.6
		c0-0.2,0-0.4-0.1-0.6c-0.3,0.1-0.6,0.3-0.9,0.6c-0.1,0.1-0.2,0.2-0.3,0.3c-0.1,0.1-0.3,0.3-0.4,0.4c-0.2,0.2-0.3,0.5-0.5,0.7
		c-0.1,0.1-0.2,0.3-0.2,0.5c0,0.3-0.1,0.5-0.2,0.8c-0.1,0.2-0.1,0.5-0.2,0.7c-0.1,0.2-0.4,0.4-0.6,0.4c-0.1,0-0.1-0.1-0.1-0.2
		c0-0.2,0-0.5,0-0.7c0-0.1,0-0.2,0-0.4c0-0.6,0-1.1-0.2-1.7c-0.1-0.3-0.1-0.6-0.2-0.9c0,0,0-0.1-0.1-0.2c-0.3,0-0.7,0-1,0.2
		c-0.2,0.1-0.4,0.2-0.5,0.4c-0.1,0.1-0.1,0.3-0.2,0.4c0,0.3,0,0.6-0.1,0.9c0,0.4,0,0.9,0,1.3c0,0.3,0,0.6-0.1,0.9
		c-0.1,0.2-0.1,0.4-0.2,0.5c0,0.1-0.1,0.2-0.2,0.2c-0.4,0.1-0.7,0.1-1.1,0.2c-0.2,0-0.3,0-0.5,0.1c-0.3,0.1-0.6,0-0.9,0.1
		c0-0.2,0-0.4,0.1-0.5c0.2-0.3,0.2-0.7,0.2-1.1c0-0.6,0.1-1.2,0.1-1.7c0-0.6,0-1.1-0.1-1.7c0-0.2-0.1-0.5-0.1-0.7c0-0.1,0-0.1,0-0.2
		c0-0.4,0-0.5,0.4-0.5c0.4-0.1,0.9-0.1,1.3-0.2c0.3,0,0.5,0,0.8,0.2c0.3,0.2,0.4,0.5,0.4,0.9c0,0,0,0.1,0,0.1c0.1,0.1,0.2,0.1,0.3,0
		c0.5-0.2,1-0.3,1.6-0.3c0.1,0,0.1,0,0.2,0c0.1,0,0.2,0.1,0.2,0.2c0,0.2,0.1,0.4,0.1,0.5c0,0.1,0.1,0.3,0.1,0.4
		c0.1,0.3,0.1,0.5,0.2,0.8c0-0.1,0.1-0.1,0.1-0.2c0.2-0.4,0.4-0.8,0.8-1.1c0.2-0.2,0.4-0.4,0.7-0.6c0.4-0.3,0.8-0.5,1.3-0.5
		c0.6,0,1.1,0,1.7,0c0.3,0,0.6,0,0.9,0c0.2,0,0.3,0.1,0.4,0.3c0,0.2,0,0.4,0,0.6c0,0.6,0,1.2,0.1,1.9c0,0.4,0,0.9,0,1.3
		c0,0.5,0.1,1.1,0.1,1.6c0.2,0.3,0.2,0.7,0.4,0.9c0.1,0.1,0.2,0.3,0.3,0.4c0.3,0.3,0.6,0.4,0.9,0.2c0.5-0.2,1-0.3,1.5-0.5
		c0.3-0.1,0.6-0.3,0.9-0.4c0.9-0.4,1.7-1.1,2.4-1.8c0.7-0.8,1.4-1.6,1.9-2.5c0.1-0.2,0.2-0.5,0.3-0.7c0-0.1,0.1-0.2,0.1-0.3
		c0,0,0,0,0,0C149.4,107.5,149.4,107.6,149.4,107.6z M147.9,89.2c0.1-0.1,0.2-0.1,0.3-0.2c0,0.1,0,0.1,0.1,0.2
		c-0.1,0-0.2,0.1-0.3,0.1C147.9,89.2,147.9,89.2,147.9,89.2z M149.7,105.3c-0.2,0.1-0.2,0.3-0.1,0.5c0,0.2,0,0.3,0,0.5
		c0,0.1-0.1,0.1-0.1,0.2c0,0,0,0-0.1,0c0-0.3-0.1-0.5-0.1-0.8c0-0.2-0.1-0.3-0.2-0.4c0,0,0,0-0.1-0.1c0.1-0.2,0.2-0.2,0.4-0.3
		c0.1,0,0.3,0,0.3,0.1C149.8,105.1,149.8,105.3,149.7,105.3z M148,55.4c0.4-0.3,0.7,0.1,1,0.2c1.9,1,3,1.9,3.2,2.6
		C151.5,58,148.4,55.9,148,55.4z M154.9,57.8c-0.2-0.1-0.4-0.1-0.6-0.3c-0.7-0.5-1.4-1-2.1-1.5c-0.2-0.1-0.4-0.3-0.5-0.5
		c-0.2-0.2-0.4-0.3-0.7-0.5c-0.8-0.5-1.5-1.1-1.9-2.1c0.2,0,0.3,0,0.3,0c0.7,0.5,1.5,0.7,2,1.5c0.1,0.2,0.4,0.4,0.7,0.5
		c0.7,0.3,1.1,0.9,1.6,1.3c0.3,0.3,0.6,0.5,0.9,0.8c0.2,0.1,0.3,0.4,0.4,0.5C154.9,57.6,154.9,57.7,154.9,57.8z M154,48.3
		c-0.2-0.2-0.1-0.6-0.2-0.9c0.1,0,0.2-0.1,0.3-0.1c0.4,0.6,0.8,1.2,1.3,1.8C154.9,49.1,154.4,48.8,154,48.3z M158.3,77.1
		c-0.9,0-1.8-0.9-1.7-1.8c0-0.8,0.7-1.4,1.4-1.4c1.1,0,1.7,0.6,1.7,1.7C159.6,76.5,159.1,77.1,158.3,77.1z M163.1,57.5
		c-0.1-0.2-0.3-0.4-0.4-0.6c0,0,0.1-0.1,0.1-0.1c0.1,0.2,0.3,0.4,0.4,0.6C163.1,57.4,163.1,57.5,163.1,57.5z M164.6,60.3
		c0.8,0.3,1,1.1,1.3,1.8C165.2,61.7,165,60.9,164.6,60.3z M185.6,108.5c-0.2-0.1-0.4-0.2-0.6-0.3c0.1-0.1,0.1-0.2,0.2-0.2
		c0.2,0.1,0.3,0.3,0.5,0.4C185.7,108.4,185.7,108.4,185.6,108.5z M192.9,110c-0.1-0.1-0.2-0.2-0.3-0.3c0.1,0,0.1-0.1,0.2-0.1
		c0.1,0.1,0.2,0.3,0.2,0.4C193,109.9,192.9,110,192.9,110z"/>
	<path fill="#FFFFFF" d="M101.1,61c-0.4,0.2-0.8,0.5-1.3,0.7c0,0.2,0,0.5,0,0.7c0,0.8,0.1,1.7,0.1,2.5c0,0.1,0,0.2,0.1,0.3
		c0.4,0,0.8-0.1,1.3-0.1c0,0,0.1,0,0.1,0c0.2-0.1,0.3-0.3,0.5-0.4c0.1-0.1,0.2,0,0.4,0c0,0.1,0,0.2,0,0.2c0.1,0,0.1,0,0.2,0
		c0.4-0.1,0.8-0.4,1.1-0.7c0.4-0.4,0.7-0.8,0.9-1.3c0.1-0.3,0.2-0.7,0.3-1.1c0.1-0.7,0.1-1.3,0-2c-0.1-0.7-0.4-1.2-1.1-1.7
		c-0.4-0.2-0.7-0.4-1.2-0.5c-0.2,0-0.3-0.1-0.5-0.1c-0.5-0.1-0.9,0-1.3,0.3c-0.1,0.1-0.3,0.2-0.4,0.3c-0.1,0.1-0.2,0.2-0.2,0.4
		c0,0.3-0.1,0.6-0.1,0.9c-0.1,0.6-0.1,1.2-0.1,1.7c0.4-0.1,0.8-0.3,1.2-0.4C101.1,60.9,101.1,60.9,101.1,61z"/>
	<path fill="#FFFFFF" d="M100.8,65.6C100.8,65.6,100.8,65.6,100.8,65.6c-0.1,0-0.3,0-0.5,0c-0.1,0-0.1,0-0.2,0c0,0.2,0,0.3,0,0.5
		c0,0.4,0.1,0.8,0.1,1.2c0,0.8,0.1,1.7,0.1,2.5c0,0.8,0.1,1.6,0.1,2.4c0,0.7,0.1,1.4,0.1,2.2c0,0.5,0.1,0.9,0,1.4c0,0.1,0,0.2,0,0.3
		c0.1,0,0.2,0,0.3,0c0.3,0,0.7,0,1-0.1c0.4,0,0.9-0.1,1.3-0.2c0.5-0.1,0.9-0.3,1.3-0.5c0.5-0.2,0.9-0.5,1.2-0.9c0.5-0.4,0.9-1,1-1.6
		c0.1-0.4,0.2-0.8,0.2-1.1c0.1-0.7,0.1-1.3-0.2-1.9c-0.1-0.4-0.3-0.7-0.5-1.1c-0.1-0.2-0.1-0.4-0.2-0.5c-0.2-0.4-0.5-0.7-0.7-1.1
		c-0.2-0.2-0.4-0.5-0.6-0.7c-0.4-0.3-0.8-0.6-1.3-0.8c-0.2-0.1-0.4-0.1-0.6-0.2c-0.4-0.1-0.8-0.1-1.2-0.1c-0.3,0.2-0.5,0.3-0.8,0.5
		C100.8,65.8,100.7,65.7,100.8,65.6z"/>
	<path fill="#FFFFFF" d="M101.4,107.2c0.4,0,0.7,0.2,1.1,0.1c-0.3-0.2-0.6-0.2-0.9-0.2C101.4,107.1,101.3,107.1,101.4,107.2z"/>
	<path fill="#FFFFFF" d="M129.5,88.3c0.3-0.5,0.5-1,0.7-1.5c0.4-0.8,0.7-1.7,0.9-2.5c0.2-0.8,0.4-1.6,0.5-2.4
		c0.1-0.5,0.2-1.1,0.3-1.6c0.1-0.5,0.1-1,0.1-1.5c0.1-0.7,0.1-1.3,0.2-2c0-0.3,0.1-0.7,0.1-1.1c-0.2,0.1-0.3,0.1-0.4,0.2
		c-0.2,0.1-0.4,0.2-0.6,0.4c-1.1,0.7-2.1,1.3-3.1,2.2c-0.7,0.6-1.3,1.2-2,1.8c-0.6,0.5-1.1,1.1-1.6,1.6c-0.1,0.1-0.3,0.3-0.4,0.5
		c-0.2,0.2-0.3,0.4-0.5,0.6c-0.2,0.2-0.3,0.4-0.5,0.7c-0.4,0.6-0.8,1.2-1.1,1.8c-0.2,0.5-0.4,0.9-0.6,1.4c-0.1,0.3-0.2,0.7-0.2,1
		c0,0,0,0.1,0,0.1c0,0.3,0,0.6,0,0.8c0,0.1,0,0.2,0,0.2c0.4,0,0.9,0.1,1.2,0.3c0.6,0.4,1.1,0.9,1.4,1.6c0,0,0,0,0,0
		c0.2,0,0.5,0.1,0.7,0.1c0.1,0,0.2,0,0.3,0c0-0.1,0-0.2,0-0.3c0-0.2,0-0.3,0-0.5c0-0.2,0-0.4,0.1-0.6c0-0.1,0.1-0.2,0.2-0.2
		c0.3-0.1,0.7-0.2,1-0.3c0.3,0,0.6,0,0.8,0.3c0.1,0.1,0.1,0.1,0.2,0.2c0.2,0.2,0.2,0.4,0.3,0.7c0,0,0,0.1,0,0.1
		c0.3-0.2,0.7-0.4,0.9-0.7C128.8,89.3,129.2,88.8,129.5,88.3z"/>
	<path fill="#FFFFFF" d="M105.5,101.5c-0.1-0.2-0.1-0.4-0.3-0.6c-0.1-0.2-0.3-0.5-0.5-0.7c-0.3-0.4-0.7-0.7-1.2-0.9
		c-0.4-0.1-0.7-0.3-1.1-0.3c-0.5,0-0.9,0-1.4,0.1c-0.1,0-0.1,0-0.2,0c-0.3,0-0.4,0.1-0.4,0.4c0,0.1,0,0.1,0,0.2
		c0.1,0.4,0.1,0.8,0.2,1.2c0.1,1.3,0.2,2.6,0.2,3.9c0,0.5,0,0.9,0,1.4c0,0.1,0.1,0.3,0.2,0.3c0.2,0,0.4,0,0.5,0c0.4,0,0.8,0,1.2,0
		c0.2,0,0.4,0.1,0.6,0.1c0.4,0,0.8,0.2,1.1-0.2c0,0,0,0,0,0c0.2-0.1,0.4-0.2,0.5-0.4c0.2-0.3,0.3-0.6,0.5-0.9
		c0.2-0.6,0.3-1.2,0.3-1.9c0-0.2-0.1-0.6-0.1-0.9C105.6,102.1,105.6,101.8,105.5,101.5z"/>
	<path fill="#FFFFFF" d="M119.1,108.8c-0.1-0.4-0.1-0.8-0.2-1.2c-0.1-0.5-0.3-0.9-0.8-1.1c-0.4-0.2-0.8-0.3-1.2-0.5
		c-0.1,0-0.2,0-0.2,0c-0.2,0-0.4,0.1-0.6,0.1c-0.2,0.1-0.4,0-0.6,0.2c0,0-0.1,0-0.1,0c-0.2,0-0.4,0.2-0.6,0.3
		c-0.4,0.3-0.5,0.8-0.6,1.3c-0.1,0.5,0,1,0.1,1.4c0.1,0.5,0.3,0.9,0.6,1.3c0.5,0.7,1.1,1.2,2,1.5c0.1,0,0.2,0,0.2,0
		c0.6-0.3,1-0.8,1.3-1.3C118.9,110.3,119.1,109.6,119.1,108.8z"/>
</g>
</svg>
