<?xml version="1.0" encoding="utf-8"?>
<!-- Generator: Adobe Illustrator 19.0.0, SVG Export Plug-In . SVG Version: 6.00 Build 0)  -->
<svg version="1.1" id="Layer_1" xmlns="http://www.w3.org/2000/svg" xmlns:xlink="http://www.w3.org/1999/xlink" x="0px" y="0px"
	 viewBox="0 0 255.1 170.1" enable-background="new 0 0 255.1 170.1" xml:space="preserve">
<g id="jDYZmw.tif">
	<g>
		<path fill="#FFFFFF" d="M164.6,112.1c-2.7,0-5.2,0-7.8,0c-0.2-1.5-0.3-2.9-0.5-4.4c-0.3-3.2-0.6-6.4-0.8-9.6
			c-0.1-1.2-0.5-1.8-1.8-1.7c-1.2,0.1-2.3,0-3.6,0c-0.3,3.2-0.7,6.2-1,9.2c-0.2,1.8-0.3,3.7-0.6,5.5c0,0.3-0.6,0.9-0.9,0.9
			c-2,0.1-4.1,0-6.3,0c2-19.3,3.9-38.5,5.9-57.8c3.7,0,7.4,0,11,0c0.2,0,0.7,0.5,0.7,0.8c0.5,4.4,0.9,8.7,1.3,13.1
			c0.5,5.4,1.1,10.8,1.6,16.2c0.5,5.4,1.1,10.8,1.7,16.1C163.9,104.3,164.2,108.1,164.6,112.1z M154.6,88.8
			c-0.2-3.2-0.4-6.4-0.6-9.5c-0.2-3.5-0.5-7.1-0.8-10.6c0-0.3-0.3-0.5-0.4-0.8c-0.2,0.2-0.5,0.5-0.5,0.7c-0.5,6.4-1,12.9-1.5,19.3
			c0,0.3,0,0.6,0.1,0.9C152.1,88.8,153.2,88.8,154.6,88.8z"/>
		<path fill="#FFFFFF" d="M97.7,54.2c4.2,0.2,8.3,0,12.3,0.6c4.9,0.7,7.6,4.1,7.7,9.2c0.1,5.4,0.1,10.8,0,16.3
			c-0.1,3.3-1,6.4-4.2,8.2c-1.5,0.9-3.2,1.4-5.2,1.4c-0.6-2.2-1.2-4.4-1.7-6.5c0.1-0.1,0.2-0.2,0.3-0.3c3.1-0.9,3.1-1,3.1-4.2
			c0-4,0-8,0-12.1c0-0.7-0.1-1.4-0.2-2c-0.4-2.7-1.4-3.5-4.4-3.3c0,16.8,0,33.7,0,50.6c-2.7,0-5.2,0-7.8,0
			C97.7,92.8,97.7,73.7,97.7,54.2z"/>
		<path fill="#FFFFFF" d="M84.6,69.6c0-2.4,0-4.7,0-7.1c0-1.7-0.8-2.4-2.5-2.3c-1,0.1-1.6,0.5-1.8,1.5c-0.2,1-0.2,2-0.3,3
			c0,8,0,8,4.7,14.6c2.1,2.9,4,5.9,6,9c1.3,2,1.9,4.3,1.8,6.7c-0.2,3.5,0,7-0.3,10.5c-0.4,4.2-3.4,7.2-7.6,7.5
			c-2.1,0.2-4.3,0.1-6.4-0.5c-3.6-0.9-5.6-4.1-6-7.8c-0.3-3.2,0.4-5.5,3.6-6.7c1.4-0.5,2.6-1.5,4.2-2.5c0,1.9,0,3.7,0,5.4
			c0,1.2,0,2.5,0.2,3.7c0.2,1.4,0.9,1.7,2.4,1.6c1.2-0.1,1.7-0.9,1.8-1.9c0.7-6.5,0-12.5-4.4-17.7c-2.3-2.7-4.1-5.8-6-8.8
			c-1.3-2.1-1.9-4.6-1.8-7.1c0.1-2.7,0-5.3,0-8c0-5.6,3.2-9,8.8-9.4c3.3-0.2,6.5,0.2,9,2.9c2.3,2.4,2.4,5.5,2.3,8.6
			c0,0.2-0.2,0.5-0.5,0.7c-2.3,1.5-4.6,2.9-7,4.4C84.9,69.7,84.8,69.6,84.6,69.6z"/>
		<path fill="#FFFFFF" d="M185.5,62c-2.2,0-4.3,0-6.7,0c0,16.7,0,33.4,0,50.1c-2.7,0-5.2,0-7.8,0c0-16.6,0-33.3,0-50.1
			c-1.9,0-3.7-0.1-5.5,0c-1.1,0-1.4-0.3-1.4-1.4c-0.1-2.1-0.4-4.1-0.6-6.3c7.6,0,15,0,22.6,0C185.9,56.9,185.7,59.3,185.5,62z"/>
		<path fill="#FFFFFF" d="M123,54.4c2.6,0,5,0,7.7,0c0,16.6,0,33.2,0,50.1c1.7,0,3.3,0.1,4.9,0c1.1-0.1,1.6,0.4,1.8,1.4
			c0.5,2,1.1,4.1,1.7,6.2c-5.4,0-10.6,0-16,0C123,92.8,123,73.6,123,54.4z"/>
	</g>
</g>
</svg>
